<svg xmlns="http://www.w3.org/2000/svg" width="120" height="120"><g fill="none"><circle cx="60" cy="60" r="60" fill="#FEE2CC"/><g transform="translate(19.5 46.2)"><rect width="57.1" height="45.9" x="12.1" y="2.3" stroke="#282828" stroke-width="4.5" rx="18"/><path stroke="#282828" stroke-width="4.5" d="M73.7 16.3a5.2 5.2 0 015.3 5.2h0v7.4a5.2 5.2 0 01-5.3 5.3h0-4.3v-18zm-66.2 0a5.2 5.2 0 00-5.3 5.2h0v7.4a5.2 5.2 0 005.3 5.3h4.3v-18z"/><path fill="#282828" d="M40.5 36.4c-2.3 0-4.4-.8-6.1-2.5-.9-.7-1.1-1.6-.3-2.5.8-.9 1.7-.7 2.6 0 3 2.1 4.9 2.1 7.8 0 1-.7 1.8-.8 2.7 0 .7.7.5 1.7-.4 2.5a9.3 9.3 0 01-6.3 2.5m-9.1-15.9v2.4c0 1.4-1 2.4-2.4 2.4-1.3 0-2.4-1-2.4-2.4V18c0-1.4 1-2.4 2.4-2.4 1.3 0 2.3 1 2.4 2.4v2.4zm23.2 0v2.4c0 1.4-1.1 2.5-2.4 2.4-1.3 0-2.3-1-2.4-2.4V18c0-1.3 1.1-2.3 2.3-2.3 1.3 0 2.4 1 2.5 2.3v2.5z"/></g><g stroke="#282828" stroke-width="4.5" transform="translate(19.5 35)"><path stroke-linecap="square" d="M7 25.2V14"/><rect width="9.5" height="9.5" x="2.3" y="2.3" rx="4.8"/></g><path d="M96.4 22.4H62.8a4.2 4.2 0 00-4.2 4.2v30.6a3 3 0 005.1 2L67 56h29.4c2.3 0 4.2-1.9 4.2-4.2V26.6c0-2.3-1.9-4.2-4.2-4.2zm-2.1 29.4H67L62.8 56V28.7c0-1.2 1-2.1 2.1-2.1h29.4c1.2 0 2.1 1 2.1 2.1v21c0 1.2-1 2.1-2.1 2.1z" fill="#282828"/><path fill="#F68B1E" d="M94.3 51.8H67L62.8 56V28.7c0-1.2 1-2.1 2.1-2.1h29.4c1.2 0 2.1 1 2.1 2.1v21c0 1.2-1 2.1-2.1 2.1z"/><path fill="#282828" d="M70.4 36.3a2.9 2.9 0 110 5.8 2.9 2.9 0 010-5.8zm9.2 0a2.9 2.9 0 110 5.8 2.9 2.9 0 010-5.8zm9.2 0a2.9 2.9 0 110 5.8 2.9 2.9 0 010-5.8z"/></g></svg>