<svg xmlns="http://www.w3.org/2000/svg" xmlns:xlink="http://www.w3.org/1999/xlink"><defs><symbol viewBox="0 0 24 24" id="add"><path d="M19 13h-6v6h-2v-6H5v-2h6V5h2v6h6v2z" /></symbol><symbol viewBox="0 0 24 24" id="add-cart"><path d="M11 9h2V6h3V4h-3V1h-2v3H8v2h3v3zm-4 9a2 2 0 1 0 0 4 2 2 0 0 0 0-4zm10 0a2 2 0 1 0 0 4 2 2 0 0 0 0-4zm-9.8-3.3.9-1.7h7.5a2 2 0 0 0 1.7-1l3.9-7-1.8-1-1 2-2.8 5h-7l-.2-.3L6.2 6l-1-2-1-2H1v2h2l3.6 7.6L5.2 14A2 2 0 0 0 7 17h12v-2H7.4a.3.3 0 0 1-.2-.3z" /></symbol><symbol viewBox="0 0 24 24" id="arrow-back"><path d="M20 11H7.8l5.6-5.6L12 4l-8 8 8 8 1.4-1.4L7.8 13H20z" /></symbol><symbol viewBox="0 0 24 24" id="arrow-down"><path d="M7.41 8.59 12 13.17l4.59-4.58L18 10l-6 6-6-6 1.41-1.41z" /></symbol><symbol viewBox="0 0 24 24" id="arrow-forward"><path d="m12 4-1.4 1.4 5.6 5.6H4v2h12.2l-5.6 5.6L12 20l8-8z" /></symbol><symbol viewBox="0 0 24 24" id="arrow-left"><path d="M15.18 15.84 11.34 12l3.84-3.82L14 7l-5 5 5 5z" /></symbol><symbol viewBox="0 0 24 24" id="arrow-right"><path d="M9 15.84 12.84 12 9 8.18 10.18 7l5 5-5 5z" /></symbol><symbol viewBox="0 0 24 24" id="bell"><path d="M12.5 22a2 2 0 0 0 2-2h-4c0 1.1.9 2 2 2Zm6-6v-5c0-3-1.6-5.6-4.5-6.3V4a1.5 1.5 0 1 0-3 0v.7c-2.9.7-4.5 3.2-4.5 6.3v5l-2 2v1h16v-1l-2-2Zm-2 1h-8v-6c0-2.5 1.5-4.5 4-4.5s4 2 4 4.5v6Z" /></symbol><symbol viewBox="0 0 24 24" id="block"><path d="M12 2a10 10 0 1 0 0 20 10 10 0 0 0 0-20zM4 12a8 8 0 0 1 12.9-6.3L5.7 16.9A7.9 7.9 0 0 1 4 12zm8 8c-1.9 0-3.5-.6-4.9-1.7L18.3 7.1A7.9 7.9 0 0 1 20 12a8 8 0 0 1-8 8z" /></symbol><symbol viewBox="0 0 24 24" id="box-arrow"><path d="M8.41 11H16.15V9.82h-8.3V11h.56zm7.69.79v4.65a.55.55 0 0 1-.56.55H8.41a.55.55 0 0 1-.56-.55v-4.65h-.29a.56.56 0 0 1-.56-.55V9.55A.55.55 0 0 1 7.56 9h8.88a.55.55 0 0 1 .56.55v1.69c0 .3-.25.55-.56.55h-.34zm-7.42.04v4.35h6.58v-4.35H8.68zm3.8-8.53A9.2 9.2 0 0 1 21 12.64 9.19 9.19 0 0 1 12 22a9.19 9.19 0 0 1-9-9.36.42.42 0 1 1 .84 0 8.34 8.34 0 0 0 8.16 8.5c4.6-.1 8.25-3.9 8.16-8.51A8.33 8.33 0 0 0 12 4.14h-1.26l.57.55a.4.4 0 0 1 0 .6.44.44 0 0 1-.62 0L9.36 4.01a.41.41 0 0 1 0-.6l1.33-1.26a.44.44 0 0 1 .62 0 .4.4 0 0 1 0 .6l-.57.55h1.74z" /></symbol><symbol viewBox="0 0 16 16" id="calendar"><path d="M6 7.3H4.7v1.4H6V7.3Zm2.7 0H7.3v1.4h1.4V7.3Zm2.6 0H10v1.4h1.3V7.3Zm1.4-4.6H12V1.3h-1.3v1.4H5.3V1.3H4v1.4h-.7C2.6 2.7 2 3.3 2 4v9.3c0 .8.6 1.4 1.3 1.4h9.4c.7 0 1.3-.6 1.3-1.4V4c0-.7-.6-1.3-1.3-1.3Zm0 10.6H3.3V6h9.4v7.3Z" /></symbol><symbol viewBox="0 0 24 24" id="cat-airplane"><path d="M9.11 17.25l.33 2.98a.42.42 0 0 1-.12.34l-.44.45-2.36-3.54-3.54-2.36.45-.44a.42.42 0 0 1 .34-.12l2.98.33 3.3-3.3-6.64-4.43a.42.42 0 0 1-.07-.64l.23-.23c.37-.37.9-.52 1.4-.4l8.62 2.16 3.4-3.4c.48-.48 1.1-.8 1.76-.92l.42-.08a1.01 1.01 0 0 1 1.18 1.18l-.08.42A3.33 3.33 0 0 1 19.35 7l-3.4 3.41 2.15 8.62c.13.5-.02 1.03-.39 1.4l-.23.23a.42.42 0 0 1-.64-.07l-4.43-6.64-3.3 3.3z" /></symbol><symbol viewBox="0 0 24 24" id="cat-appliance"><path d="M3.16 2.06c-.44.12-.88.51-1.05.93-.09.23-.09.23-.09 2.27V7.3l.13.27c.08.17.2.35.33.47.19.19.56.4.7.4.05 0 .06.5.06 4.98v4.97l-.23.13c-.46.26-.8.72-.95 1.27-.26 1 .38 2.08 1.42 2.39.2.05 1 .06 8.02.06 8.61 0 7.96.02 8.47-.25.27-.14.66-.54.8-.81a2 2 0 0 0-.78-2.66l-.23-.13v-4.97c0-4.49 0-4.98.06-4.98.14 0 .51-.21.7-.4.13-.12.25-.3.33-.47l.13-.27V3.22l-.1-.24a1.72 1.72 0 0 0-1.13-.94c-.1-.02-3.06-.04-8.27-.04-7 0-8.13.01-8.32.06m16.32 3.2V7H3.52V3.52h15.96v1.74m-5.55-1.14c-.34.17-.5.47-.48.88.02.32.14.54.4.7.19.13.54.18.77.1.29-.1.54-.4.6-.73.07-.35-.18-.8-.52-.96a1 1 0 0 0-.77.01m3.17-.02c-.73.32-.71 1.37.03 1.7.17.06.5.05.7-.04a1 1 0 0 0 .53-.83.99.99 0 0 0-.53-.81c-.17-.1-.55-.1-.73-.02M8.24 9.45c0 .82.01.95.08 1.09.15.33.4.46.86.46h.3v.22c0 .51.19.88.5.98.21.07.51.03.7-.1.23-.14.32-.37.32-.77V11h1v.33c0 .6.25.89.76.89.24 0 .29-.01.43-.12.21-.18.3-.37.32-.76l.02-.34h.3c.47 0 .73-.15.87-.49.05-.12.06-.33.06-1.07v-.92h3.48v9.72h-4.09l.16-.17c.55-.6.87-1.42 1-2.59l.05-.4c0-.04.02-.04.08.02.13.11.27.46.3.7.04.34.1.46.26.61.13.13.36.23.5.23.24 0 .6-.24.69-.47.13-.32.01-1.03-.26-1.54-.21-.4-.66-.84-1.07-1.06-.62-.32-.43-.3-3.79-.32-1.96 0-3.07 0-3.21.03-.6.1-1.04.55-1.13 1.14-.05.27-.02.4.19 1.28a5.34 5.34 0 0 0 1.01 2.32l.2.22H4.76V8.52h3.48v.93m5-.43v.5H9.76v-1h3.48v.5m.6 5.99c0 .36-.1 1-.22 1.32a1.76 1.76 0 0 1-1.4 1.23c-.57.12-1.23.08-1.65-.12-.62-.3-.9-.84-1.3-2.57l-.03-.11h4.6v.25m5.4 4.8c.34.19.32.7-.04.9-.1.04-1.08.05-7.68.05-8.22 0-7.73.01-7.91-.22-.17-.2-.09-.6.14-.72.16-.09 15.32-.1 15.49 0" /></symbol><symbol viewBox="0 0 24 24" id="cat-baby"><path d="M21.58 11.335a2.913 2.913 0 0 1 2.121 2.81 2.907 2.907 0 0 1-2.182 2.832c-.237 1.947-1.184 3.398-2.819 4.317-1.477.83-3.555 1.232-6.35 1.232-2.794 0-4.872-.402-6.349-1.232-1.635-.919-2.582-2.37-2.819-4.317A2.907 2.907 0 0 1 1 14.145c0-1.316.867-2.455 2.121-2.81v-.107c0-5.088 4.141-9.227 9.23-9.227 5.088 0 9.23 4.139 9.23 9.228v.106zm-18.459 1.77a1.33 1.33 0 0 0-.51 1.04c0 .408.194.795.51 1.042v-2.082zm8.956-4.902c.808 0 1.465-.656 1.465-1.463 0-1.14-1.192-2.74-3.432-2.794-3.168.977-5.378 3.969-5.378 7.282v4.744c0 1.86.672 3.14 2.055 3.917 1.23.692 3.051 1.027 5.563 1.027 2.513 0 4.333-.335 5.563-1.027 1.384-.776 2.056-2.058 2.056-3.917v-4.743a7.616 7.616 0 0 0-6.227-7.49l.032.03c.863.821 1.378 1.933 1.378 2.97a3.08 3.08 0 0 1-3.075 3.076 2.624 2.624 0 0 1-2.62-2.621 2.261 2.261 0 0 1 2.257-2.26.806.806 0 0 1 0 1.61.649.649 0 0 0-.648.65c0 .556.453 1.01 1.011 1.01zm-2.06 8.576a.818.818 0 0 1 1.27-1.03 1.42 1.42 0 0 0 2.212 0 .816.816 0 0 1 1.15-.12.816.816 0 0 1 .12 1.15 3.044 3.044 0 0 1-2.374 1.134 3.049 3.049 0 0 1-2.378-1.134zm-2.382-4.524a1.905 1.905 0 0 1 2.69 0 .817.817 0 1 1-1.156 1.157.271.271 0 0 0-.38 0 .813.813 0 0 1-1.154 0 .815.815 0 0 1 0-1.157zm7.405 1.397a.817.817 0 0 1-.578-1.397 1.904 1.904 0 0 1 2.692 0 .817.817 0 1 1-1.157 1.157.27.27 0 0 0-.379 0 .813.813 0 0 1-.578.24zm7.05.494a1.33 1.33 0 0 0-.51-1.04v2.08a1.33 1.33 0 0 0 .51-1.04z" /></symbol><symbol viewBox="0 0 24 24" id="cat-beauty"><path d="M9.7 13.23H8V8.66h.3a.74.74 0 0 0 .7-.75.75.75 0 0 0-.75-.76H8v-.58h.3a.76.76 0 0 0 0-1.51H8v-.58h.3a.75.75 0 0 0 .7-.76.74.74 0 0 0-.72-.72H8v-.24a.76.76 0 1 0-1.51 0V3h-.3a.76.76 0 1 0 0 1.51h.3v.58h-.3a.76.76 0 0 0 0 1.52h.3v.58h-.3a.76.76 0 1 0 0 1.51h.3v4.56H4.75A.76.76 0 0 0 4 14v6.38a2 2 0 0 0 2 2h2.42a2 2 0 0 0 2-2V14a.76.76 0 0 0-.72-.77zm-.76 7.13a.52.52 0 0 1-.52.53H6a.53.53 0 0 1-.53-.53v-5.62h3.47zM19.11 8.27h-.34V5.41a.76.76 0 0 0-.77-.75h-2.73a.76.76 0 0 0-.76.75v2.86h-.34a.76.76 0 0 0-.76.75v11.34a2 2 0 0 0 2 2h2.38a2 2 0 0 0 2-2V9a.76.76 0 0 0-.68-.73zM16 6.17h1.24v2.1H16zm2.33 14.19a.52.52 0 0 1-.52.53h-2.36a.53.53 0 0 1-.53-.53V9.78h3.43z" /></symbol><symbol viewBox="0 0 24 24" id="cat-beer-wine-and-spirits"><path d="M19.21 7.82H17a2.96 2.96 0 0 0 .5-1.67 3.38 3.38 0 0 0-5.02-2.91 3.44 3.44 0 0 0-4.77-.5l-.5.5a3.38 3.38 0 0 0-5.03 2.92c0 1.24.76 2.4 1.87 3h-.17v10.23c0 1.42 1.1 2.5 2.55 2.5h6.82c1.1 0 2.04-.67 2.38-1.67h3.58a2.48 2.48 0 0 0 2.56-2.5v-7.4c0-1.42-1.1-2.5-2.56-2.5zM5.58 4.49c.5 0 .94.16 1.28.5.42.5 1.2.33 1.36-.26.34-.83 1.28-1.32 2.13-1 .51.18.85.5 1.02 1 .26.59 1.03.75 1.45.26.34-.34.77-.5 1.28-.5.94 0 1.7.75 1.7 1.66 0 .92-.77 1.67-1.7 1.67-.51 0-.94-.17-1.28-.5-.42-.42-1.2-.25-1.45.25-.34.83-1.28 1.33-2.13 1a1.53 1.53 0 0 1-1.02-1c-.17-.58-.94-.75-1.36-.25-.34.33-.77.5-1.28.5a1.7 1.7 0 0 1-1.7-1.67c0-.91.76-1.66 1.7-1.66zm8.52 14.9c0 .5-.34.83-.85.83H6.43c-.5 0-.85-.33-.85-.83v-9.9c.6 0 1.1-.18 1.62-.42a3.44 3.44 0 0 0 4.77.5l.51-.5c.51.24 1.02.41 1.62.41v9.9zm5.96-1.67c0 .5-.34.84-.85.84H15.8V9.48h3.4c.52 0 .86.34.86.83v7.41zM8.99 11.9h1.5v6.66h-1.5V11.9zm2.55 0h1.5v6.66h-1.5V11.9zm-5.1 0h1.5v6.66h-1.5V11.9z" /></symbol><symbol viewBox="0 0 24 24" id="cat-beverages"><path d="M8.97 21.48 8 16.05h8.39l-.65 5.43H8.97zM12 4.95c.21 0 .4.04.6.06l-.82 3.98H6.94A5.04 5.04 0 0 1 12 4.94zm5.06 4.04h-3.63l.75-3.57a4.85 4.85 0 0 1 2.88 3.57zm-9.33 5.56L7 10.5h4.45l-.85 4.04H7.73zm8.84 0h-4.3l.84-4.04h3.94l-.48 4.04zm3.62-5.56H18.7a6.4 6.4 0 0 0-4.21-5.1l.18-.87a.64.64 0 0 1 .31-.4.7.7 0 0 1 .54-.07l3.7.98a.82.82 0 0 0 1-.52c.12-.4-.13-.82-.56-.94l-3.7-.98a2.46 2.46 0 0 0-1.8.22 2.18 2.18 0 0 0-1.08 1.4l-.17.8a7.1 7.1 0 0 0-.92-.08c-3.46 0-6.3 2.43-6.71 5.56H3.8c-.45 0-.81.34-.81.76s.36.76.81.76h1.55l2.12 11.87c.06.36.4.63.8.63h8.19a.8.8 0 0 0 .8-.67l1.41-11.83h1.5c.46 0 .82-.34.82-.76s-.36-.76-.81-.76z" /></symbol><symbol viewBox="0 0 24 24" id="cat-books"><path d="M11.28 6.17v12.09a3.16 3.16 0 0 0-1.75-.53H3.65a.2.2 0 0 1-.21-.2V4.63c0-.11.09-.2.2-.2h5.88c.97 0 1.76.78 1.76 1.74m9.28-1.54v12.9a.2.2 0 0 1-.2.2h-5.83a3.17 3.17 0 0 0-1.81.53V6.17c0-.96.79-1.74 1.75-1.74h5.88c.12 0 .21.09.21.2M20.36 3h-5.89A3.18 3.18 0 0 0 12 4.17 3.18 3.18 0 0 0 9.53 3H3.65C2.74 3 2 3.73 2 4.63v12.9c0 .9.74 1.63 1.65 1.63h5.88c.79 0 1.48.54 1.69 1.3a.72.72 0 0 0 .7.54h.17c.33 0 .61-.22.7-.53a1.75 1.75 0 0 1 1.69-1.31h5.87A1.64 1.64 0 0 0 22 17.53V4.63c0-.9-.74-1.63-1.65-1.63" /></symbol><symbol viewBox="0 0 24 24" id="cat-camera"><path d="M13.38 13.38a3.44 3.44 0 1 0 3.47 3.43 3.45 3.45 0 0 0-3.47-3.43zm0 5.5a2.07 2.07 0 1 1 2.08-2.07 2.07 2.07 0 0 1-2.08 2.07z" /><path d="M18.92 12H18l-.81-1.61a2.08 2.08 0 0 0-1.05-1l.61-2.93h.13a1.38 1.38 0 0 0 1.38-1.38v-2.7A1.38 1.38 0 0 0 16.85 1H9.92a1.38 1.38 0 0 0-1.38 1.38v2.74A1.38 1.38 0 0 0 9.92 6.5h.13l.61 2.93a2.08 2.08 0 0 0-1.05 1L8.8 12H7.15v-.69a.69.69 0 1 0-1.38 0V12h-.69A2.07 2.07 0 0 0 3 14.06v6.88A2.07 2.07 0 0 0 5.08 23h13.84A2.07 2.07 0 0 0 21 20.94v-6.88A2.07 2.07 0 0 0 18.92 12zm-9-9.62zm.69 2.74h-.69V2.38h6.93v2.74h-6.24zM15.3 6.5l-.57 2.75H12l-.54-2.75zm4.32 14.44a.69.69 0 0 1-.7.68H5.08a.68.68 0 0 1-.69-.68v-6.88a.68.68 0 0 1 .69-.68h4.15a.7.7 0 0 0 .62-.38l1-2a.71.71 0 0 1 .62-.38h3.83a.71.71 0 0 1 .62.38l1 2a.7.7 0 0 0 .62.39h1.38a.69.69 0 0 1 .7.68z" /></symbol><symbol viewBox="0 0 24 24" id="cat-car"><path d="m21.32 9.78-1.7-3.9A3.14 3.14 0 0 0 16.73 4H7.27a3.14 3.14 0 0 0-2.89 1.87l-1.7 3.91A3.08 3.08 0 0 0 1 12.5v1.54c0 1.15.64 2.13 1.57 2.67v2.74c0 .86.7 1.55 1.57 1.55H7.3c.86 0 1.57-.7 1.57-1.54v-2.32h6.28v2.31c0 .86.7 1.55 1.57 1.55h3.15c.86 0 1.57-.7 1.57-1.54V16.7A3.07 3.07 0 0 0 23 14.05V12.5c0-1.18-.68-2.2-1.68-2.72zm-15.5-3.3a1.57 1.57 0 0 1 1.45-.94h9.46c.63 0 1.2.37 1.45.94l1.27 2.93H4.55l1.28-2.93zM7.3 19.45H4.14v-2.31H7.3v2.31zm12.57-2.31v2.31H16.7v-2.31h3.15zm1.57-3.1c0 .86-.7 1.55-1.57 1.55H4.14c-.86 0-1.57-.7-1.57-1.55V12.5c0-.85.7-1.54 1.57-1.54h15.72c.86 0 1.57.69 1.57 1.54v1.54zm-14.14-.77c0-.85-.7-1.54-1.58-1.54-.86 0-1.57.69-1.57 1.54 0 .86.7 1.55 1.57 1.55s1.58-.7 1.58-1.55zm12.57 0c0-.85-.7-1.54-1.57-1.54s-1.58.69-1.58 1.54c0 .86.7 1.55 1.58 1.55.86 0 1.57-.7 1.57-1.55zm-4.72 0a.78.78 0 0 0-.78-.77H9.64a.78.78 0 0 0-.78.77.78.78 0 0 0 .78.78h4.72a.78.78 0 0 0 .78-.78z" /></symbol><symbol viewBox="0 0 24 24" id="cat-cart"><path d="M4.79 3v16.22h17.4c.44 0 .81.36.81.81 0 .45-.37.81-.82.81h-1.92l.02.27a1.9 1.9 0 0 1-1.9 1.89 1.9 1.9 0 0 1-1.89-2.16H9.66l.02.27A1.9 1.9 0 0 1 7.78 23a1.9 1.9 0 0 1-1.89-2.16H3.15V4.62H1.82A.81.81 0 0 1 1 3.8c0-.45.37-.81.82-.81h2.97zm15.5 1.1c.6 0 1.08.49 1.08 1.09v12.95H5.87V5.2c0-.6.49-1.08 1.1-1.08zm-9.93 1.63H7.5v10.8h12.24V5.72h-2.86v4.86L13.64 9.5l-3.28 1.09V5.73zm4.9 0h-3.27v2.7l1.65-.54 1.61.54v-2.7z" /></symbol><symbol viewBox="0 0 24 24" id="cat-computer-accessories"><path d="M11.83 11.39v.44H8.49v-4.5a4.13 4.13 0 0 1 3.34 4.06M7.7 20.43a4.13 4.13 0 0 1-4.13-4.13v-2.9h8.26v2.9a4.13 4.13 0 0 1-4.13 4.13m-.79-13.1v4.5H3.57v-.44a4.13 4.13 0 0 1 3.34-4.05M21.21 2a.79.79 0 0 0-.78.79V8.3a2.29 2.29 0 0 1-2.29 2.29 2.29 2.29 0 0 1-2.28-2.29V6.47A4.48 4.48 0 0 0 11.39 2a4.47 4.47 0 0 0-4.4 3.74A5.7 5.7 0 0 0 2 11.38v4.92a5.7 5.7 0 0 0 11.4 0v-4.91a5.7 5.7 0 0 0-4.82-5.63 2.9 2.9 0 0 1 2.8-2.19c1.6 0 2.9 1.3 2.9 2.9v1.84a3.86 3.86 0 0 0 3.86 3.86A3.86 3.86 0 0 0 22 8.31V2.8a.79.79 0 0 0-.79-.79" /></symbol><symbol viewBox="0 0 24 24" id="cat-computing"><path d="M19 17.4H5.25c-.96 0-1.75-.79-1.75-1.75v-.15h17.25v.15c0 .96-.79 1.75-1.75 1.75zM14.36 21H9.89l.37-2.1h3.73l.37 2.1zM5.25 4.5H19c.96 0 1.75.79 1.75 1.75V14H3.5V6.25c0-.96.79-1.75 1.75-1.75zM19 3H5.25A3.25 3.25 0 0 0 2 6.25v9.4a3.25 3.25 0 0 0 3.25 3.25h3.48L8.37 21H7.13a.75.75 0 0 0 0 1.5h10a.75.75 0 0 0 0-1.5h-1.25l-.36-2.1H19a3.25 3.25 0 0 0 3.25-3.25v-9.4A3.25 3.25 0 0 0 19 3z" /></symbol><symbol viewBox="0 0 24 24" id="cat-data-storage"><path d="M13.9 7.05h.81v-.77h-.8v.78zm4.47 2.86c.4 0 .73.32.73.71v8.57c0 1.48-1.14 2.7-2.53 2.7H7.53C6.13 21.87 5 20.67 5 19.18v-8.57a.71.71 0 0 1 .73-.7h.4v-7.2A.71.71 0 0 1 6.78 2a.46.46 0 0 1 .08 0h10.38c.4 0 .73.32.73.71v7.2h.4zm-.73 9.28v-7.86H6.46v7.86c0 .73.57 1.27 1.08 1.27h9.04c.5 0 1.07-.54 1.07-1.27zM7.58 9.91h8.94V3.42H7.58v6.5zm5.6-1.44a.72.72 0 0 1-.73-.7v-2.2a.72.72 0 0 1 .73-.71H15.5a.71.71 0 0 1 .65.7v2.2a.72.72 0 0 1-.72.71h-2.26zm-4.52 0a.72.72 0 0 1-.72-.7v-2.2a.71.71 0 0 1 .65-.71h2.33a.72.72 0 0 1 .73.7v2.2a.72.72 0 0 1-.73.71H8.66zm.73-1.42h.8v-.77h-.8v.78z" /></symbol><symbol viewBox="0 0 20 20" id="cat-deals"><path d="M12.81 16.22h-.41A1.27 1.27 0 0 1 11.14 15v-1.28a1.27 1.27 0 0 1 1.26-1.26h.41a1.26 1.26 0 0 1 1.26 1.26V15a1.26 1.26 0 0 1-1.26 1.22Zm-.41-3a.46.46 0 0 0-.46.46V15a.46.46 0 0 0 .46.46h.41a.47.47 0 0 0 .47-.46v-1.28a.47.47 0 0 0-.47-.46ZM8.05 12h-.41a1.26 1.26 0 0 1-1.26-1.26V9.49a1.26 1.26 0 0 1 1.26-1.26h.41a1.26 1.26 0 0 1 1.27 1.26v1.23A1.26 1.26 0 0 1 8.05 12Zm-.41-3a.47.47 0 0 0-.46.47v1.23a.47.47 0 0 0 .46.47h.41a.47.47 0 0 0 .47-.47V9.49A.47.47 0 0 0 8.05 9Z" /><path d="M15.44 17.65H4.56A1.65 1.65 0 0 1 2.91 16v-.54a3.85 3.85 0 0 1 0-7.08v-.54a1.64 1.64 0 0 1 .95-1.49.36.36 0 0 1 .23-.35l8.78-3.77a1.65 1.65 0 0 1 1.27 0 1.59 1.59 0 0 1 .9.88l.21.5a3.86 3.86 0 0 1 3.54 2.33 3.91 3.91 0 0 1-.27 3.55 3.86 3.86 0 0 1-1.43 6V16a1.65 1.65 0 0 1-1.65 1.65ZM4.56 6.94a.9.9 0 0 0-.9.9v.8A.36.36 0 0 1 3.4 9a3.11 3.11 0 0 0 0 5.86.36.36 0 0 1 .26.35V16a.9.9 0 0 0 .9.9h10.88a.9.9 0 0 0 .9-.9v-.8a.36.36 0 0 1 .26-.35 3.11 3.11 0 0 0 0-5.85.36.36 0 0 1-.26-.35v-.8a.9.9 0 0 0-.9-.9Zm12.53 1.44a3.79 3.79 0 0 1 .91.52 3.1 3.1 0 0 0-3-4.59.38.38 0 0 1-.37-.22l-.31-.74a.89.89 0 0 0-.49-.48 1 1 0 0 0-.69 0l-7.7 3.32h10a1.65 1.65 0 0 1 1.65 1.65Zm-13.81.26Zm5.08 7.2a.33.33 0 0 1-.17 0A.37.37 0 0 1 8 15.3l3.72-7.24a.38.38 0 0 1 .67.34l-3.7 7.24a.38.38 0 0 1-.33.2Z" /></symbol><symbol viewBox="0 0 24 24" id="cat-fashion"><path d="M23.28 6.47a.74.74 0 0 1 .01.26.75.75 0 0 1-.07.25l-2.04 3.8a.68.68 0 0 1-.17.2.62.62 0 0 1-.72.05l-1.73-1.07v10.38a.72.72 0 0 1-.18.49.63.63 0 0 1-.47.2H6.38a.63.63 0 0 1-.46-.2.7.7 0 0 1-.19-.49V9.96l-1.72 1.07a.61.61 0 0 1-.24.1.58.58 0 0 1-.26-.03.65.65 0 0 1-.4-.32l-2.03-3.8a.73.73 0 0 1-.06-.52.69.69 0 0 1 .3-.41c1.06-.66 1.82-1.17 2.42-1.57.83-.55 1.32-.88 1.85-1.12.8-.35 1.48-.36 3.04-.36h.7a.63.63 0 0 1 .44.18.69.69 0 0 1 .2.44c.15 1.5 1.08 2.63 2.18 2.63s2.03-1.13 2.17-2.63a.71.71 0 0 1 .2-.44.63.63 0 0 1 .45-.18h.57c1.62 0 2.34 0 3.17.36.52.24 1.02.57 1.84 1.12.61.4 1.37.9 2.43 1.57a.7.7 0 0 1 .3.42zm-5.93 1.95a.63.63 0 0 1 .9-.25l.67.42 1.4-2.64-.56-.37c-.74-.49-1.19-.79-1.55-.95-.56-.25-1.05-.27-2.54-.26h-.15c-.35 1.65-1.4 2.87-2.72 3.18v12.1h4.46V8.76c0-.12.03-.24.09-.34zm4.42-1.53-.34-.22-1.4 2.61.35.21 1.39-2.6zM2.8 6.72l-.27.17 1.4 2.6.26-.16-1.4-2.61zm4.15 1.7a.72.72 0 0 1 .08.34v10.9h4.47V7.56c-1.32-.32-2.37-1.54-2.72-3.18h-.37c-1.31 0-1.79.02-2.32.25-.36.16-.81.46-1.56.96l-.62.4 1.4 2.64.74-.46a.63.63 0 0 1 .9.25z" /></symbol><symbol viewBox="0 0 24 24" id="cat-fitness"><path d="M23 12.14a1.2 1.2 0 0 0-1.12-1.2V8.5c0-1.06-.8-1.9-1.81-1.9a1.5 1.5 0 0 0-.49.07V5.5c0-1.37-1.07-2.5-2.4-2.5-1.31 0-2.38 1.1-2.38 2.5v5.43H9.23V5.5c0-1.37-1.08-2.5-2.4-2.5-1.31 0-2.39 1.1-2.39 2.5v1.18a1.5 1.5 0 0 0-.49-.07c-1 0-1.8.85-1.8 1.9v2.42c-.64 0-1.15.54-1.15 1.21 0 .67.51 1.21 1.15 1.21v2.14c0 1.06.8 1.9 1.8 1.9a1.5 1.5 0 0 0 .5-.07v1.18c0 1.37 1.07 2.5 2.39 2.5 1.31 0 2.39-1.1 2.39-2.5v-5.15h5.59v5.15c0 1.37 1.07 2.5 2.4 2.5 1.31 0 2.39-1.1 2.39-2.5v-1.18a1.5 1.5 0 0 0 .48.07c1 0 1.81-.85 1.81-1.9v-2.14c.61-.02 1.1-.57 1.1-1.2zM3.98 16a.5.5 0 0 1-.49-.51V8.5A.5.5 0 0 1 3.98 8a.5.5 0 0 1 .49.51v6.98a.5.5 0 0 1-.5.51zm3.93 2.5c0 .62-.49 1.1-1.07 1.1a1.1 1.1 0 0 1-1.08-1.1v-13c0-.62.49-1.1 1.08-1.1s1.07.48 1.07 1.1v13zm10.35 0c0 .62-.49 1.1-1.07 1.1a1.1 1.1 0 0 1-1.08-1.1v-13c0-.62.5-1.1 1.08-1.1s1.07.48 1.07 1.1v13zm2.3-3.01a.5.5 0 0 1-.49.51.5.5 0 0 1-.49-.51V8.5a.5.5 0 0 1 .49-.51.5.5 0 0 1 .49.51v6.98z" /></symbol><symbol viewBox="0 0 24 24" id="cat-games"><path d="M16.58 11.58a1.2 1.2 0 1 0 1.2 1.2 1.2 1.2 0 0 0-1.2-1.2zm-.64-.65a1.19 1.19 0 1 0-1.19 1.2 1.19 1.19 0 0 0 1.19-1.2zm.64-.65a1.2 1.2 0 1 0-1.19-1.2 1.2 1.2 0 0 0 1.19 1.2zM9.14 8.7H7.37v1.43H5.89v1.71h1.48v1.42h1.77v-1.42h1.49v-1.71H9.14V8.7z" /><path d="M22.06 9.26C21.15 6.37 19 4 16.55 4a6.41 6.41 0 0 0-2.55.52h-.06a4.31 4.31 0 0 1-1.9.38 4.31 4.31 0 0 1-1.9-.38h-.06A6.36 6.36 0 0 0 7.46 4C5.06 4 2.86 6.37 2 9.26A20.12 20.12 0 0 0 1 16c.06 3.07 1.34 4.63 3.67 4.64A4 4 0 0 0 8 18.78l.58-.79A4 4 0 0 1 12 16a4 4 0 0 1 3.38 2s.43.6.58.79a4.06 4.06 0 0 0 3.36 1.85c2.33 0 3.62-1.57 3.67-4.6a20.5 20.5 0 0 0-.93-6.78zm-2.73 9.52a2.32 2.32 0 0 1-1.92-1.14l-.55-.76a5.7 5.7 0 0 0-9.71 0l-.55.76a2.31 2.31 0 0 1-1.93 1.14c-1.22 0-1.79-.68-1.83-2.79a18.4 18.4 0 0 1 .85-6.17c.69-2.21 2.33-4 3.75-4a4.71 4.71 0 0 1 2 .4h.06a6.58 6.58 0 0 0 2.5.55 6.53 6.53 0 0 0 2.54-.49h.06a4.74 4.74 0 0 1 2-.4c1.43 0 3.06 1.76 3.76 4a18.79 18.79 0 0 1 .82 6.12c-.05 2.1-.62 2.78-1.85 2.78z" /><path d="M18.42 9.73a1.2 1.2 0 1 0 1.19 1.2 1.2 1.2 0 0 0-1.19-1.2z" /></symbol><symbol viewBox="0 0 24 24" id="cat-garden"><path d="M17.91 11.83H17a14 14 0 0 0 1.26-4.09l.21-1.41a.62.62 0 0 0-.38-.64.74.74 0 0 0-.77.09l-.17.13a15.13 15.13 0 0 0-1.31 1.22 20.34 20.34 0 0 1 1.38-3.95.58.58 0 0 0-.2-.76.74.74 0 0 0-.82 0A13.37 13.37 0 0 0 14 4.14a9.26 9.26 0 0 1 .81-2.24.56.56 0 0 0-.15-.73.74.74 0 0 0-.77-.11l-.91.4a4.83 4.83 0 0 0-2.74 2.87A7.7 7.7 0 0 0 8 2.89l-1.33-.55a.74.74 0 0 0-.78.13.6.6 0 0 0-.11.76l.09.14a17.44 17.44 0 0 1 1.88 4 6.72 6.72 0 0 0-.66-.32L6 6.6a.74.74 0 0 0-.78.13.6.6 0 0 0-.11.76l.08.11A14.73 14.73 0 0 1 7 11.83H5.69a.66.66 0 0 0-.69.63v7.11a4.13 4.13 0 0 0 4.36 3.83h4.88a4.13 4.13 0 0 0 4.36-3.83v-7.11a.66.66 0 0 0-.69-.63zM16.84 8a12.71 12.71 0 0 1-1.34 3.79h-.89A10.32 10.32 0 0 1 16.84 8zm-1.78-3a41.72 41.72 0 0 0-1.27 5.2 10.78 10.78 0 0 0-.61 1.64H12A10.11 10.11 0 0 1 15.06 5zm-3.61.64A3.21 3.21 0 0 1 12.92 3a9.3 9.3 0 0 0-.46 2.9V6c-.14.2-.27.41-.39.62l-.07.16a5.62 5.62 0 0 0-.55-1.06.28.28 0 0 0 0-.09zM11.05 9a10.8 10.8 0 0 0-.4 1.84 5.39 5.39 0 0 0-.8-1.61l-.29-.37A18.36 18.36 0 0 0 8 4.29 5.5 5.5 0 0 1 11.05 9zm-1.59 2.83H8.4a15.23 15.23 0 0 0-1.14-3.24 4.53 4.53 0 0 1 2.2 3.24zm-3.07 1.26h10.82v.67H6.39zm10.83 6.48a2.8 2.8 0 0 1-3 2.57H9.36a2.79 2.79 0 0 1-3-2.57V15h10.86z" /></symbol><symbol viewBox="0 0 24 24" id="cat-groceries"><path d="M20.67 7.54a5.6 5.6 0 0 0-4.95-1.9 9.82 9.82 0 0 0-3.28.82c.14-1.5-.13-3.64-2.37-4.4-1.08-.36-1.54 1.1-.86 1.26 1.4.36 2.05 1.46 2.22 3.08a10.4 10.4 0 0 0-3.17-.76c-2.06-.15-3.82.53-4.95 1.9-1.47 1.79-1.71 4.57-.68 7.63 1.65 4.87 4.69 7.38 8.12 6.73a5.77 5.77 0 0 0 1.25-.4 5.74 5.74 0 0 0 2.34.5c2.97 0 5.54-2.47 7.04-6.83 1.03-3.06.77-5.84-.7-7.63zm-.83 7.15c-.51 1.51-2.49 6.43-6.27 5.69a4.46 4.46 0 0 1-1.2-.42.83.83 0 0 0-.39-.09.9.9 0 0 0-.4.09c-.39.2-.79.35-1.18.42-3.76.74-5.74-4.18-6.27-5.7-.88-2.55-.73-4.82.42-6.21.81-.97 2.04-1.44 3.56-1.33 1.25.08 2.44.44 3.43 1a.84.84 0 0 0 .84 0 7.92 7.92 0 0 1 3.43-1c1.54-.1 2.77.34 3.56 1.33 1.2 1.4 1.35 3.66.47 6.22z" /></symbol><symbol viewBox="0 0 20 20" id="cat-grooming"><path d="M16.55 15.48h-.1a.37.37 0 0 1-.25-.48l1.35-4.66a2.62 2.62 0 0 0-.42-2.28 2.59 2.59 0 0 0-2.06-1H4.89a2.58 2.58 0 0 0-2.49 3.26L3.71 15a.37.37 0 0 1-.71.2l-1.3-4.68a3.31 3.31 0 0 1 3.19-4.21h10.18a3.32 3.32 0 0 1 3.18 4.24l-1.34 4.66a.38.38 0 0 1-.36.27Z" /><path d="M16.55 15.48a.37.37 0 0 1-.36-.37V10H3.72v5.13a.37.37 0 1 1-.73 0V9.61a.37.37 0 0 1 .36-.37h13.2a.37.37 0 0 1 .37.37v5.5a.37.37 0 0 1-.37.37Z" /><path d="M4.82 15.48a.38.38 0 0 1-.37-.37V10a.37.37 0 1 1 .74 0v5.13a.38.38 0 0 1-.37.35ZM6.29 15.48a.37.37 0 0 1-.37-.37V10a.37.37 0 1 1 .73 0v5.13a.37.37 0 0 1-.36.35ZM7.75 15.48a.37.37 0 0 1-.36-.37V10a.37.37 0 1 1 .73 0v5.13a.37.37 0 0 1-.37.35ZM9.22 15.48a.38.38 0 0 1-.37-.37V10a.37.37 0 1 1 .74 0v5.13a.38.38 0 0 1-.37.35ZM10.69 15.48a.38.38 0 0 1-.37-.37V10a.37.37 0 1 1 .73 0v5.13a.37.37 0 0 1-.36.35ZM12.15 15.48a.37.37 0 0 1-.36-.37V10a.37.37 0 1 1 .73 0v5.13a.37.37 0 0 1-.37.35ZM13.62 15.48a.38.38 0 0 1-.37-.37V10a.37.37 0 0 1 .75 0v5.13a.38.38 0 0 1-.38.35ZM15.09 15.48a.37.37 0 0 1-.37-.37V10a.37.37 0 1 1 .73 0v5.13a.37.37 0 0 1-.36.35Z" /></symbol><symbol viewBox="0 0 24 24" id="cat-hair-care"><path d="M12.73 2v2.59L13 8.52c.27 3.45.54 6.89.79 10.32v3.34h7.24v-3.25c.16-2.51.37-5.06.57-7.53.17-2.14.34-4.29.49-6.43V2zm7.14 19h-.66a1.67 1.67 0 0 0-.51-.74 2.1 2.1 0 0 0-2.51 0 1.65 1.65 0 0 0-.5.74H15v-1.2h4.84zm0-2.55v.17H15L14 4.88v-.11h7zM21 3.61h-7v-.45h7zM9.9 8.6v-.23a1.35 1.35 0 0 0-.59-1.07A2 2 0 0 0 8 6.85V5.77h.82V2h-4v.76H2.1V5h2.75v.75h.81v1.1a2.09 2.09 0 0 0-1.27.45 1.39 1.39 0 0 0-.6 1.07v.23A2.67 2.67 0 0 0 2 11.08v9.66a1.48 1.48 0 0 0 1.52 1.44h6.65a1.49 1.49 0 0 0 1.53-1.44v-9.66A2.68 2.68 0 0 0 9.9 8.6zM6 3.16h1.65v1.45H6zM5 8.4a.61.61 0 0 1 .16-.2 1 1 0 0 1 .52-.2H8a.91.91 0 0 1 .52.18.5.5 0 0 1 .15.18v.05H5zm5.5 12.34a.31.31 0 0 1-.33.28H3.52a.3.3 0 0 1-.32-.28v-1.65h7.3zm0-2.81H3.2v-5.27h7.3zm0-6.42H3.2v-.43a1.56 1.56 0 0 1 1.61-1.51h4.07a1.57 1.57 0 0 1 1.62 1.51z" /></symbol><symbol viewBox="0 0 24 24" id="cat-health"><path d="M21.04 4a5.85 5.85 0 0 0-4.18-1.77h-.13a7.34 7.34 0 0 0-4.56 1.67C10.74 2.64 9.36 2 8.07 2h-.02A6.61 6.61 0 0 0 3.3 4.02a6.9 6.9 0 0 0-1.8 3.54.91.91 0 0 0 .73 1.07.91.91 0 0 0 1.05-.73 5.05 5.05 0 0 1 1.35-2.62A4.78 4.78 0 0 1 8.08 3.8h.01c.96 0 2.18.69 3.44 1.93.37.37.97.37 1.35 0a5.57 5.57 0 0 1 3.93-1.7h.04c1.08 0 2.13.44 2.9 1.22a5.1 5.1 0 0 1 1.44 3.6 5.21 5.21 0 0 1-.25 1.55h-5.51c-.24 0-.48.1-.65.28l-2.1 2.22-2.48-5.65a.9.9 0 0 0-1.6-.12l-2.02 3.32H1.91a.91.91 0 0 0 0 1.83h5.2a.9.9 0 0 0 .75-.45l1.37-2.24 2.36 5.37a.91.91 0 0 0 .7.52h.12a.94.94 0 0 0 .67-.27l2.75-2.95h4.06l-.14.17-7.59 7.39L6.22 14a.9.9 0 0 0-.64-.26.92.92 0 0 0-.63 1.57l6.6 6.43a.9.9 0 0 0 .64.26.9.9 0 0 0 .63-.26l8.22-8a7.03 7.03 0 0 0 0-9.74" /></symbol><symbol viewBox="0 0 24 24" id="cat-home"><path d="M18.66 22h-4.5c-.43 0-.78-.33-.78-.73v-6.29h-2.76v6.29c0 .4-.35.73-.78.73h-4.5C4.05 22 3 21.01 3 19.8V9.92c0-.2.09-.4.25-.53l8.22-7.2a.82.82 0 0 1 1.06 0l8.22 7.2a.71.71 0 0 1 .25.53v9.88c0 1.21-1.05 2.2-2.34 2.2zm-3.72-1.47h3.72c.43 0 .78-.33.78-.73v-9.56L12 3.74l-7.44 6.5v9.56c0 .4.35.73.78.73h3.72v-6.28c0-.4.35-.73.78-.73h4.32c.43 0 .78.32.78.73v6.28z" /></symbol><symbol viewBox="0 0 24 24" id="cat-home-audio"><path d="M14.5 2H2.83a.84.84 0 0 0-.83.84v18.33c0 .45.38.83.83.83H14.5a.84.84 0 0 0 .83-.83V2.84A.84.84 0 0 0 14.5 2zm-.84 18.33h-10V3.67h10v16.66zm6.63-9.12a5.83 5.83 0 0 1 0 8.25l-1.18-1.18a4.17 4.17 0 0 0 0-5.9l1.18-1.17zm-3.53 3.53 1.17-1.17a2.49 2.49 0 0 1 0 3.53l-1.17-1.18a.84.84 0 0 0 0-1.18zm-8.1 4.76a4.17 4.17 0 0 0 4.17-4.17 4.17 4.17 0 0 0-4.17-4.16 4.17 4.17 0 0 0-4.16 4.16 4.17 4.17 0 0 0 4.17 4.17zm0-6.67a2.5 2.5 0 0 1 2.5 2.5 2.5 2.5 0 0 1-2.5 2.5 2.5 2.5 0 0 1-2.5-2.5 2.5 2.5 0 0 1 2.5-2.5zm0-3.33a2.5 2.5 0 1 0 0-5A2.5 2.5 0 0 0 6.16 7a2.5 2.5 0 0 0 2.5 2.5zm0-3.33c.46 0 .84.37.84.83a.84.84 0 0 1-.84.84.84.84 0 0 1-.83-.84c0-.46.38-.83.83-.83z" /></symbol><symbol viewBox="0 0 24 24" id="cat-industrial-scientific"><path d="m3.94 8.24-1.5.61a.67.67 0 0 0-.41.81l.57 2a.68.68 0 0 0 .66.5h.11l1.6-.27c.35.4.85.63 1.39.63l.36-.05 3.63-.72c.23.36.57.64.98.79v2.65l-4 6.15a.67.67 0 0 0 .26.84.69.69 0 0 0 .89-.12l2.85-4.37v4.63A.68.68 0 0 0 12 23a.68.68 0 0 0 .68-.68V17.7l2.85 4.36a.69.69 0 0 0 .89.13.67.67 0 0 0 .26-.84l-4-6.14v-2.66a1.96 1.96 0 0 0 1.26-1.5l2.78-.55a.69.69 0 0 0 .6.34h.06l4-.4a.69.69 0 0 0 .5-.3.67.67 0 0 0 .08-.56L19.7 1.5a.68.68 0 0 0-.37-.43.7.7 0 0 0-.58 0L15.1 2.79a.67.67 0 0 0-.39.63L11.2 4.67l-.23-.81.91-.25-.36-1.33-3.15.88.37 1.3.91-.24.25.92L5.1 6.87a1.8 1.8 0 0 0-1.16 1.37zm-.18 2.46-.23-.84.64-.24.27.96-.68.12zm8.25.6a.61.61 0 0 1-.61-.6c0-.34.27-.61.61-.61.34 0 .62.27.62.6a.61.61 0 0 1-.62.61zm6.57-8.68 1.84 6.52-2.57.27-1.62-5.67 2.35-1.12zm-3.51 2.07 1.27 4.5-2.64.52a2 2 0 0 0-2.08-.9 1.97 1.97 0 0 0-1.57 1.62l-.43.09-.98-3.5 6.43-2.33zM5.58 8.11l1.76-.63.93 3.28-1.82.36a.46.46 0 0 1-.53-.31l-.61-2.16a.45.45 0 0 1 .27-.54z" /></symbol><symbol viewBox="0 0 24 24" id="cat-jewel"><path d="m7.63 3.79 1 1a.68.68 0 0 0 1-1l-1-1a.65.65 0 0 0-.93 0 .67.67 0 0 0-.2.48.7.7 0 0 0 .16.44zM14.82 5h.06a.69.69 0 0 0 .43-.16.46.46 0 0 1 .07-.07l1-1a.69.69 0 0 0-.07-1 .68.68 0 0 0-.87 0l-1 1a.64.64 0 0 0-.23.46.69.69 0 0 0 .15.5.64.64 0 0 0 .46.27zM12 3.77a.67.67 0 0 0 .67-.68V1.68a.67.67 0 1 0-1.34 0v1.41a.67.67 0 0 0 .67.68zm9.87 7.88-3.69-5.11a.68.68 0 0 0-.54-.27H6.36a.68.68 0 0 0-.54.27l-3.69 5.11a.69.69 0 0 0 0 .86l9.37 10.27a.72.72 0 0 0 .5.22.63.63 0 0 0 .45-.18l9.33-10.27a.68.68 0 0 0 .09-.9zm-5.35-4-1 3-2.15-3zm-2.16 3.76H9.63L12 8.09zm-3.68-3.8-2.15 3-1-3zm-4.42.6 1.1 3.17H4zM4.2 12.73h3.64l2.38 6.64zm7.8 7.6-2.73-7.6h5.45zm1.77-1 2.38-6.64h3.65zm2.86-8 1.1-3.17 2.27 3.2z" /></symbol><symbol viewBox="0 0 24 24" id="cat-kitchen-dinning"><path d="M9.99 2a.68.68 0 0 1 .07 0h3.9c.41 0 .74.35.74.8v2.1h1.95c.11 0 .22.02.33.08l2.92 1.58a.8.8 0 0 1 .4.7v1.06h.98a.72.72 0 0 1 .64.39.84.84 0 0 1 0 .8.72.72 0 0 1-.64.38h-.97v1.32h1.95a.72.72 0 0 1 .64.4.84.84 0 0 1 0 .79.72.72 0 0 1-.64.39H20.3v5.11c0 2.25-1.67 4.1-3.73 4.1H10.6a.72.72 0 0 1-.65-.4.84.84 0 0 1 0-.79.72.72 0 0 1 .65-.39h5.98c1.25 0 2.26-1.1 2.26-2.52v-8H5.18v8c0 1.42 1.01 2.52 2.27 2.52h4.65a.72.72 0 0 1 .64.4.84.84 0 0 1 0 .79.72.72 0 0 1-.64.39H7.45c-2.06 0-3.73-1.85-3.73-4.1V12.8H1.77a.72.72 0 0 1-.65-.36.84.84 0 0 1-.04-.79.73.73 0 0 1 .69-.43h1.95V9.9h-.97a.72.72 0 0 1-.66-.35.84.84 0 0 1-.03-.8.73.73 0 0 1 .69-.42h.97V7.26c0-.3.16-.57.4-.7l2.93-1.58a.7.7 0 0 1 .25-.08.68.68 0 0 1 .08 0h1.95V2.79c0-.4.28-.75.66-.79zm.8 1.58V4.9h2.44V3.58H10.8zm-3.23 2.9L5.17 7.75v.56h13.66v-.56l-2.37-1.29H7.56z" /></symbol><symbol viewBox="0 0 24 24" id="cat-livestock"><path d="M12.35 11.73a1.06 1.06 0 1 0 1.06-1.06 1.05 1.05 0 0 0-1.06 1.06zm1.2 0c0 .15-.29.15-.29 0a.15.15 0 0 1 .15-.14.14.14 0 0 1 .14.14z" /><path d="m19.53 15.33 1-.55a1.44 1.44 0 0 0-.15-2.57L17 10.77a7.57 7.57 0 0 0-1.82-3.25 8.31 8.31 0 0 0 1.4-3.64 2.66 2.66 0 0 0-.77-2.09 2.63 2.63 0 0 0-2-.78 2.77 2.77 0 0 0-2.06.91A2.8 2.8 0 0 0 9.63 1a2.84 2.84 0 0 0-2.07.9l-.07-.08A2.79 2.79 0 0 0 5.56 1a2.67 2.67 0 0 0-2.09.78 2.62 2.62 0 0 0-.78 2 8.46 8.46 0 0 0 1.4 3.71A7.58 7.58 0 0 0 2 12.76v7.9a2.47 2.47 0 0 0 2.47 2.47 2.44 2.44 0 0 0 1.72-.7 2.42 2.42 0 0 0 1.72.7 2.45 2.45 0 0 0 1.72-.7 2.45 2.45 0 0 0 3.43 0 2.44 2.44 0 0 0 1.72.7 2.47 2.47 0 0 0 2.3-1.57 3.35 3.35 0 0 0 1.22.23 3.52 3.52 0 0 0 1.31-.26A2.74 2.74 0 0 0 21.38 19a5 5 0 0 0-1.85-3.67zm-15-12.48a1.19 1.19 0 0 1 1-.34 1.3 1.3 0 0 1 1.28 1.31.75.75 0 0 0 1.5 0 1.32 1.32 0 0 1 2.63 0 .75.75 0 0 0 1.5 0 1.33 1.33 0 0 1 1.37-1.31 1.18 1.18 0 0 1 .92.34 1.19 1.19 0 0 1 .33 1A6.76 6.76 0 0 1 14 6.53a7.57 7.57 0 0 0-8.77 0 6.82 6.82 0 0 1-1-2.77 1.15 1.15 0 0 1 .3-.91zm11.22 17.81a1 1 0 0 1-1.94 0 .75.75 0 0 0-1.5 0 1 1 0 1 1-1.93 0 .75.75 0 0 0-1.5 0 1 1 0 1 1-1.94 0 .75.75 0 0 0-1.5 0 1 1 0 0 1-1.94 0v-7.9a6.13 6.13 0 1 1 12.25 0zm3.88-7.12-2.38 1.36v-2.38zm-.63 6.6a1.89 1.89 0 0 1-1.75-.14v-3.37l.89-.51A4 4 0 0 1 19.88 19a1.27 1.27 0 0 1-.88 1.14z" /></symbol><symbol viewBox="0 0 24 24" id="cat-mall"><path d="M12 2c1.98 0 3.26 1.98 4.06 4.02h4.83c.61 0 1.11.48 1.11 1.07v13.85c0 .58-.5 1.06-1.11 1.06H3.1A1.1 1.1 0 0 1 2 20.93V7.1c0-.59.5-1.07 1.11-1.07h4.77C8.73 4 10.06 2 12 2zM7.3 7.62H3.66V20.4h16.66V7.62H16.6c.33 1.14.51 2.13.58 2.56a.8.8 0 0 1-.7.91.9.9 0 0 1-.12.01.82.82 0 0 1-.82-.67 19.96 19.96 0 0 0-.68-2.81H9.03c-.32.94-.58 1.91-.74 2.78a.84.84 0 0 1-.97.65.8.8 0 0 1-.67-.93c.05-.28.26-1.29.64-2.5zm4.72 3.2c.16 0 .36.1.42.3l.82 2.04 2.2.16c.4.03.6.56.26.82l-1.74 1.42.53 2.13a.46.46 0 0 1-.43.6c-.06 0-.16 0-.23-.07l-1.87-1.15-1.87 1.15a.48.48 0 0 1-.23.06.46.46 0 0 1-.42-.59l.52-2.13-1.7-1.42c-.33-.3-.13-.82.26-.82l2.2-.16.85-2.04a.45.45 0 0 1 .43-.3zM12 3.6c-.85 0-1.66 1.03-2.32 2.42h4.57C13.63 4.63 12.85 3.6 12 3.6z" /></symbol><symbol viewBox="0 0 24 24" id="cat-men-clothing"><path d="M3.46 6.43c0-.05.04-.11.11-.14l2.54-1.2L8.8 9.57a.67.67 0 0 0 .27.24l1.15 1.72-.87 5.93a.6.6 0 0 0 .22.55l1.92 1.63c.14.11.32.18.51.18.2 0 .37-.07.5-.18l1.93-1.63a.6.6 0 0 0 .22-.54l-.87-5.94 1.14-1.72a.68.68 0 0 0 .28-.24l2.7-4.48 2.53 1.2c.07.03.1.08.1.14v14.11c0 .1-.1.17-.22.17H3.69c-.12 0-.23-.08-.23-.17V6.44zM12 5.31 9.66 3.3h4.68L12 5.3zM7.93 3.6l3.1 2.68-1.48 1.78-2.26-3.77.06-.07.58-.62zm8.78.7-2.26 3.76-1.48-1.78 3.1-2.68.58.63.06.06zM12.37 12l.78 5.3-1.15.98-1.15-.97.78-5.31h.75zm-1-1.29-.92-1.38L12 7.35l1.55 1.98-.92 1.38h-1.26zm9.75-5.56-3.06-1.44L17 2.55l-.3-.31v-.01a.72.72 0 0 0-.24-.16l-.11-.03-.17-.04H7.83c-.06 0-.11.03-.17.04-.03.01-.07.01-.1.03a.72.72 0 0 0-.25.17L5.92 3.7 2.88 5.15C2.34 5.41 2 5.9 2 6.43v14.11c0 .8.76 1.46 1.7 1.46H20.3c.93 0 1.69-.66 1.69-1.46V6.44c0-.54-.34-1.03-.88-1.29z" /></symbol><symbol viewBox="0 0 24 24" id="cat-men-shoes"><path d="M2.13 15.45H5.8c.02 0 .5 0 1.17.12v.61H2.13v-.73zm3.64-1.4h-3.7a13.2 13.2 0 0 1 .62-4.7c.97.5 3.16 1.55 4.67 1.6h.06c1.57 0 3.17-1.56 3.87-2.33l.85.92-1.22 1.43a.88.88 0 0 0-.05 1c.18.27.53.3.74.05l1.35-1.59.77.83-.75.88a.8.8 0 0 0-.18.49.84.84 0 0 0 .13.5c.18.28.53.31.74.07l.88-1.04 2.09 2.26c.08.1.2.15.3.16a40.02 40.02 0 0 0 3.72 0h.03c.51 0 .87.43 1.05.73-1.48.54-5.29 1.29-7.99 1.29-1.95 0-2.49-.38-2.6-.5-2.06-2-5.03-2.05-5.37-2.05zm7.94-4.6c.17-.03.34.04.47.2a.91.91 0 0 1 .19.5l-.65-.7zm9.27 6.03c-.11-.68-.93-2.3-2.29-2.3h-.06a52.7 52.7 0 0 1-3.47 0l-1.88-2.04c.29-.87.13-1.89-.4-2.53-.4-.5-.97-.68-1.5-.5a3.88 3.88 0 0 0-.78-1.94c-.11-.12-.25-.19-.39-.16a.49.49 0 0 0-.35.24c-.18.3-.15.74.07 1 .12.13.23.33.3.6l-.62-.7c-.2-.21-.5-.2-.7.04-.01.03-1.87 2.35-3.49 2.35h-.04C5.73 9.5 2.95 7.98 2.63 7.8c-.25-.14-.53 0-.66.3-.05.12-1.3 3.08-.88 6.7v2.09c0 .38.23.7.52.7h5.87c.3 0 .53-.32.53-.7V15.8a6.1 6.1 0 0 1 2.52 1.43c.52.51 1.58.76 3.22.76 3.15 0 7.85-.95 8.94-1.64.2-.13.36-.45.3-.88z" /></symbol><symbol viewBox="0 0 24 24" id="cat-mobile"><path d="M17.89 2.1A3.63 3.63 0 0 0 15.28 1H8.7A3.73 3.73 0 0 0 5 4.75v14.48A3.73 3.73 0 0 0 8.7 23h6.55A3.73 3.73 0 0 0 19 19.23V4.75a3.68 3.68 0 0 0-1.11-2.65zm-9.19.44h6.55a2.2 2.2 0 0 1 2.08 1.51H6.65A2.14 2.14 0 0 1 8.7 2.54zM6.52 5.3h10.91V18H6.52zm10.3 15.49a2.14 2.14 0 0 1-1.54.65H8.7a2.2 2.2 0 0 1-2.18-2.16h10.91a2.18 2.18 0 0 1-.61 1.51z" /></symbol><symbol viewBox="0 0 24 24" id="cat-mobile-accessories"><path d="M6.59 2h-1.3A3.19 3.19 0 0 0 2 5.07v2.2a3.19 3.19 0 0 0 3.29 3.06h1.6v5.77a2 2 0 0 0 1.33 1.83V22a.72.72 0 0 0 1.43 0v-4.07A2 2 0 0 0 11 16.1v-10A4.29 4.29 0 0 0 6.59 2zM4.92 9a1.75 1.75 0 0 1-1.51-1.72V5.07A1.75 1.75 0 0 1 4.92 3.4zm4.59 7.31a.62.62 0 0 1-.61.44.6.6 0 0 1-.62-.58v-5.9A1.31 1.31 0 0 0 6.92 9h-.57V3.37h.22a2.83 2.83 0 0 1 2.94 2.7zM18.22 2h-1.3a4.23 4.23 0 0 0-4.37 4.07v10.05A2 2 0 0 0 13.89 18v4a.72.72 0 0 0 1.43 0v-4a2 2 0 0 0 1.34-1.83v-5.82h1.6a3.19 3.19 0 0 0 3.29-3.07V5.06A3.24 3.24 0 0 0 18.22 2zm-1.1 7h-.57a1.32 1.32 0 0 0-1.34 1.29v5.85a.62.62 0 0 1-1.24 0v-10a2.82 2.82 0 0 1 2.93-2.7h.22zm3-1.7A1.75 1.75 0 0 1 18.59 9V3.4a1.75 1.75 0 0 1 1.51 1.67z" /></symbol><symbol viewBox="0 0 24 24" id="cat-musical-instrument"><path d="M7.97 13.34a2.65 2.65 0 0 0-2.66 2.6V16c0 1.45 1.17 2.61 2.66 2.61a2.58 2.58 0 0 0 2.61-2.6v-.05a2.6 2.6 0 0 0-2.6-2.61zm14.74-9.17c.38.37.38.93-.04 1.3-.23.19-.8.56-1.35 0l-.75-.74-.93.93.74.74a.9.9 0 0 1 0 1.3c-.18.2-.65.52-1.3 0l-.75-.74-2.43 2.42a6.8 6.8 0 0 1 1.4 3.07 4.09 4.09 0 0 1-1.02 3.64 3.34 3.34 0 0 1-1.68.93 5.24 5.24 0 0 1-1.31 4.51 4.93 4.93 0 0 1-3.64 1.45 8.52 8.52 0 0 1-5.92-2.7C.74 17.3.13 13 2.42 10.78a5 5 0 0 1 3.6-1.4c.32 0 .6 0 .93.05a4.22 4.22 0 0 1 .93-1.68c.7-.7 1.68-1.12 2.84-1.12 1.36 0 2.76.52 3.92 1.45l2.43-2.42-.84-.84a.9.9 0 0 1 0-1.3.9.9 0 0 1 1.3 0l.85.83.93-.93-.8-.84a.9.9 0 0 1 0-1.3.9.9 0 0 1 1.31 0l2.9 2.89zM7.97 16.78a.83.83 0 0 1-.84-.83c0-.47.38-.84.84-.84.47 0 .84.37.84.84a.83.83 0 0 1-.84.83zm7-2c.47-.46.65-1.2.51-2.05A5.04 5.04 0 0 0 14 10a4.85 4.85 0 0 0-3.27-1.54c-.42 0-1.07.1-1.54.56a2.07 2.07 0 0 0-.55 1.49c0 .28-.14.56-.38.7a.82.82 0 0 1-.8.14 8.72 8.72 0 0 0-1.44-.19c-.65 0-1.58.14-2.28.84-1.54 1.54-.98 4.65 1.3 6.94a6.87 6.87 0 0 0 4.67 2.14c.65 0 1.58-.14 2.28-.84.84-.84 1.08-2.19.66-3.73a.81.81 0 0 1 .14-.79.89.89 0 0 1 .7-.37c.42 0 1.02-.1 1.49-.56z" /></symbol><symbol viewBox="0 0 24 24" id="cat-othercategories"><path d="M12 2a10 10 0 1 1 0 20 10 10 0 0 1 0-20zm3.75 8.75a1.25 1.25 0 1 1 0 2.5 1.25 1.25 0 0 1 0-2.5zm-3.75 0a1.25 1.25 0 1 1 0 2.5 1.25 1.25 0 0 1 0-2.5zm-3.75 0a1.25 1.25 0 1 1 0 2.5 1.25 1.25 0 0 1 0-2.5zM12 20.44a8.44 8.44 0 1 0 0-16.88 8.44 8.44 0 1 0 0 16.88z" /></symbol><symbol viewBox="0 0 24 24" id="cat-pet-supplies"><path d="M10.11 9.59a1.09 1.09 0 1 0 1.06 1.09 1.07 1.07 0 0 0-1.06-1.09zm4.07 0a1.09 1.09 0 1 0 1.06 1.09 1.08 1.08 0 0 0-1.06-1.09z" /><path d="M21.45 7.64a12.8 12.8 0 0 0-2.16-2.74 3.4 3.4 0 0 0-3.09-1.08 2.25 2.25 0 0 0-.58.22 5.65 5.65 0 0 0-3.47-1A5.65 5.65 0 0 0 8.68 4a2.25 2.25 0 0 0-.58-.22A3.4 3.4 0 0 0 5 4.9a12.5 12.5 0 0 0-2.15 2.74c-.89 1.54-1.08 2.8-.57 3.73a2.73 2.73 0 0 0 2.15 1.49 10 10 0 0 0-.25 2.29A6 6 0 0 0 5 18.43a5.16 5.16 0 0 0 2.11 1.88 11.37 11.37 0 0 0 5 .93 11.37 11.37 0 0 0 5-.93 5.22 5.22 0 0 0 2.11-1.88 6 6 0 0 0 .85-3.28 10 10 0 0 0-.25-2.29A2.73 2.73 0 0 0 22 11.37c.53-.93.34-2.19-.55-3.73zM5.13 10.69l-.24.65a1.35 1.35 0 0 1-1.28-.72c-.22-.4 0-1.22.55-2.19A10.82 10.82 0 0 1 6 6.07a2.53 2.53 0 0 1 1.39-.75 13.55 13.55 0 0 0-1.75 3.8c-.16.6-.35 1.11-.51 1.57zm7 5.27a1.43 1.43 0 0 1-.69-.44 1.42 1.42 0 0 1-.44-.74 3.6 3.6 0 0 1 1.1-.12 3.63 3.63 0 0 1 1.1.12v.06a1.49 1.49 0 0 1-.44.74 1.43 1.43 0 0 1-.61.42zm4.33 2.95a8.69 8.69 0 0 1-3.57.76v-2.32a3.65 3.65 0 0 0 1-.73 2.89 2.89 0 0 0 .88-1.84 1.55 1.55 0 0 0-1-1.5 4.28 4.28 0 0 0-1.7-.24 4.28 4.28 0 0 0-1.7.24 1.56 1.56 0 0 0-1 1.5 2.9 2.9 0 0 0 .89 1.84 3.65 3.65 0 0 0 1 .73v2.32a8.69 8.69 0 0 1-3.57-.76 3.8 3.8 0 0 1-1.99-3.76 10.26 10.26 0 0 1 .85-3.92q.27-.71.57-1.62c1.06-3.27 2.18-5 5-5s4 1.78 5 5.05q.3.92.57 1.62a10.25 10.25 0 0 1 .84 3.92 3.81 3.81 0 0 1-2.05 3.71zm4.21-8.29a1.36 1.36 0 0 1-1.28.72l-.24-.65-.54-1.57a13.55 13.55 0 0 0-1.75-3.8 2.53 2.53 0 0 1 1.39.75 11.07 11.07 0 0 1 1.87 2.36c.58.97.78 1.79.57 2.19z" /></symbol><symbol viewBox="0 0 24 24" id="cat-printers"><circle cx="9" cy="18.69" r=".92" /><path d="M14.62 7.12h-5a.63.63 0 0 0 0 1.26h5a.63.63 0 1 0 0-1.26zm-5-1.24h3.13a.63.63 0 1 0 0-1.26H9.62a.63.63 0 0 0 0 1.26z" /><circle cx="15.25" cy="18.69" r=".92" /><path d="M12.13 17.77a.92.92 0 1 0 .91.92.92.92 0 0 0-.91-.92z" /><path d="M21.5 12H21v-.5a2 2 0 0 0-2-2h-.5V3.38A1.38 1.38 0 0 0 17.13 2h-10a1.38 1.38 0 0 0-1 .4 1.42 1.42 0 0 0-.4 1v6.1h-.5a2 2 0 0 0-2 2v.5h-.5a.75.75 0 0 0 0 1.5h.5v.5a2 2 0 0 0 2 2l-.68 1.82-.64 1.73a2 2 0 0 0 1.87 2.7h12.67a2 2 0 0 0 1.87-2.7l-.64-1.73L19 16a2 2 0 0 0 2-2v-.5h.5a.75.75 0 0 0 0-1.5zM7.25 3.5H17v6H7.25zm11.61 17a.49.49 0 0 1-.41.22H5.8a.49.49 0 0 1-.41-.22.51.51 0 0 1-.06-.45L6 18.34c.44-1.21.79-2.16 1-2.78a2.69 2.69 0 0 1 .4-.76h2.21a2.63 2.63 0 0 0 5 0h2.15a19.14 19.14 0 0 1 1.49 3.59l.64 1.74a.51.51 0 0 1-.03.4zm.64-6.5a.5.5 0 0 1-.5.5h-.62c-.53-1.08-.92-1.25-1.77-1.25H14a.76.76 0 0 0-.75.75A1.13 1.13 0 0 1 11 14a.76.76 0 0 0-.75-.75H7.64c-.85 0-1.24.17-1.77 1.25h-.62a.5.5 0 0 1-.5-.5v-2.5a.5.5 0 0 1 .5-.5H19a.5.5 0 0 1 .5.5z" /></symbol><symbol viewBox="0 0 24 24" id="cat-safety"><path d="M8.46 16.26a.7.7 0 0 1 .47.89 2.54 2.54 0 0 0 0 .39v1.26a.94.94 0 0 0 .25.72.7.7 0 0 0 .49.19.72.72 0 0 0 .52-.2.91.91 0 0 0 .24-.7v-1.9c0-.38 0-.43.29-.55A2.24 2.24 0 0 0 12 13.83 2.32 2.32 0 0 0 9.77 12H9.7a2.34 2.34 0 0 0-2.24 1.63 2.21 2.21 0 0 0 1 2.63zm.3-2.64a1.4 1.4 0 0 1 1-.38 1.19 1.19 0 0 1 1.18 1.13 1.12 1.12 0 0 1-.36.79 1.26 1.26 0 0 1-.88.38 1.24 1.24 0 0 1-1.23-1.16 1.06 1.06 0 0 1 .29-.76zM17 8a1.14 1.14 0 1 0 1.51.45A1.12 1.12 0 0 0 17 8zm4.79-1.5a5.21 5.21 0 0 0-3-2.41.52.52 0 0 0-.65.38.59.59 0 0 0 .07.43.63.63 0 0 0 .33.27A4.07 4.07 0 0 1 21.31 10a.59.59 0 0 0 .4.69.51.51 0 0 0 .66-.38 5.18 5.18 0 0 0-.58-3.81z" /><path d="M18.33 6.06a.51.51 0 0 0-.65.38.58.58 0 0 0 .4.69 1.93 1.93 0 0 1 1.3 2.27.61.61 0 0 0 .07.42.59.59 0 0 0 .33.27.51.51 0 0 0 .66-.38 3.12 3.12 0 0 0-2.11-3.65zm-3.55 3.32h-7.7V6.65A2.66 2.66 0 0 1 9.36 4a2.59 2.59 0 0 1 2.88 2.1 5.73 5.73 0 0 1 .08 1v.8a.18.18 0 0 0 .18.18h1.4a.19.19 0 0 0 .19-.17v-.24A5 5 0 0 0 13 3.47 4.46 4.46 0 0 0 9.5 2a4.58 4.58 0 0 0-4.3 4.36v3.03h-.64A1.41 1.41 0 0 0 3 10.94v9.15a1.39 1.39 0 0 0 1.55 1.54h10.23A1.46 1.46 0 0 0 16.42 20v-9a1.49 1.49 0 0 0-1.64-1.62zm0 10.79h-10c-.29 0-.33 0-.33-.3v-8.93h10.3z" /></symbol><symbol viewBox="0 0 20 20" id="cat-sale"><path d="M3.78 18.13a1.3 1.3 0 0 1-1.31-.9l-1.62-6A1.39 1.39 0 0 1 2 9.59l13.81-3.7a1.62 1.62 0 0 1 1.03.11 1.18 1.18 0 0 1 .69.76l1.62 6a1.2 1.2 0 0 1-.21 1 1.66 1.66 0 0 1-.9.6L4.23 18.07a1.74 1.74 0 0 1-.45.06ZM16.22 6.58a1.15 1.15 0 0 0-.26 0L2.15 10.31c-.38.1-.65.43-.58.69l1.62 6c.07.27.47.41.85.31l13.81-3.7a.94.94 0 0 0 .49-.32.47.47 0 0 0 .09-.37l-1.62-6a.45.45 0 0 0-.26-.28.92.92 0 0 0-.33-.06ZM2.06 10ZM7.63 4.26A1.27 1.27 0 1 1 8.9 3a1.27 1.27 0 0 1-1.27 1.26Zm0-1.79A.52.52 0 0 0 7.1 3a.53.53 0 1 0 1.05 0 .52.52 0 0 0-.52-.53Z" /><path d="M4.48 15.32a.36.36 0 0 1-.36-.32.37.37 0 0 1 .3-.43l.65-.11c.66-.12.93-.37.91-.51s-.32-.4-.94-.35c-.9.07-1.65-.35-1.73-1-.07-.5.3-1.12 1.52-1.34l.65-.11a.36.36 0 0 1 .43.3.37.37 0 0 1-.3.43L5 12c-.66.11-.93.37-.91.51s.32.4.93.34c.91-.07 1.66.36 1.74 1S6.42 15 5.2 15.2l-.65.12Zm3.3-.81a.37.37 0 0 1-.38-.37v-.55a.49.49 0 0 1 0-.17v-2.57a.38.38 0 0 1 .35-.37l.41-.12a.39.39 0 0 1 .43.18l1.28 2.22a.29.29 0 0 1 .08.14l.28.48a.37.37 0 0 1-.14.51.38.38 0 0 1-.51-.13l-.17-.31-1.26.34v.35a.38.38 0 0 1-.37.37Zm.37-3.25V13l.85-.22Zm3.13 2.31a.37.37 0 0 1-.36-.27l-.81-3a.37.37 0 0 1 .26-.46.38.38 0 0 1 .46.27l.72 2.7 1.32-.35a.39.39 0 0 1 .46.26.38.38 0 0 1-.27.46l-1.67.45h-.1Zm3.09-.82a.36.36 0 0 1-.36-.28L13.6 11l-.4-1.51a.37.37 0 0 1 .18-.49h.07l1.67-.44a.36.36 0 0 1 .45.26.37.37 0 0 1-.26.46L14 9.57l.22.81 1-.25a.37.37 0 0 1 .46.26.39.39 0 0 1-.26.46l-1 .25.22.82 1.36-.36a.37.37 0 0 1 .45.27.36.36 0 0 1-.26.45l-1.67.45ZM3.7 9.71a.38.38 0 0 1-.32-.56l3.16-5.47a.37.37 0 0 1 .65.37L4 9.52a.39.39 0 0 1-.3.19ZM13.91 7a.34.34 0 0 1-.19 0L8.25 3.76a.37.37 0 0 1-.14-.51.39.39 0 0 1 .51-.13l5.48 3.16a.36.36 0 0 1 .13.51.35.35 0 0 1-.32.21Z" /></symbol><symbol viewBox="0 0 24 24" id="cat-services"><path d="m19.38 9.54-1.85 1.8-1.84 1.8.87 5.08-4.56-2.4-4.56 2.4.87-5.08-1.84-1.8-1.85-1.8 5.1-.74L12 4.18l2.28 4.62 5.1.74zm.34-3.9A9.98 9.98 0 0 0 12 2a9.98 9.98 0 0 0-7.72 3.64A9.95 9.95 0 0 0 2 12a9.95 9.95 0 0 0 3.64 7.71A9.96 9.96 0 0 0 12 22c2.42 0 4.63-.86 6.36-2.29a10.08 10.08 0 0 0 1.93-2.12 9.95 9.95 0 0 0 1.71-5.6 10 10 0 0 0-2.28-6.35z" /></symbol><symbol viewBox="0 0 24 24" id="cat-sunglasses"><path d="m7.73 18.28 1.91-4.08.24.1v.14c0 1.82-.9 3.33-2.15 3.84zm-1.63.05c-1.3-.45-2.26-2.01-2.26-3.89a3.5 3.5 0 0 1 0-.14 7 7 0 0 1 4.4-.54l-2.13 4.57zm11.92-.05 1.9-4.08.24.1v.14c0 1.82-.9 3.33-2.14 3.84zm-1.63.05c-1.3-.45-2.27-2.01-2.27-3.89v-.14a7 7 0 0 1 4.41-.54l-2.14 4.57zm6.6-3.56-1.87-8.42a2.77 2.77 0 0 0-1.02-1.8 2.44 2.44 0 0 0-1.92-.52.71.71 0 0 0-.47.3.8.8 0 0 0-.13.57c.03.2.13.38.28.5.16.13.35.17.53.14.3-.05.61.03.86.23s.41.5.47.87l1.42 6.46a8.44 8.44 0 0 0-7.86-.06 2.4 2.4 0 0 0-1.28-.36c-.49 0-.92.14-1.28.36a8.45 8.45 0 0 0-7.86.06L4.3 6.58a1.24 1.24 0 0 1 .45-.81c.25-.2.56-.27.86-.23a.67.67 0 0 0 .53-.14.77.77 0 0 0 .28-.5c.06-.42-.2-.8-.6-.87a2.47 2.47 0 0 0-1.93.51 2.7 2.7 0 0 0-1 1.75l-1.87 8.48a.82.82 0 0 0 .14.65.7.7 0 0 0 .56.29h.81c.42 2.23 1.92 3.93 3.78 4.22.06.02.12.05.19.05l.07-.02c.1.01.2.04.29.04 1.2 0 2.32-.58 3.16-1.65a6.27 6.27 0 0 0 1.3-3.88c.02-.06.23-.26.68-.26.45 0 .67.2.69.23 0 2.83 1.7 5.15 3.9 5.5.06 0 .12.04.19.04l.08-.02c.1.01.18.04.28.04 1.2 0 2.32-.58 3.16-1.65a6 6 0 0 0 1.17-2.64h.81a.71.71 0 0 0 .57-.3.8.8 0 0 0 .13-.64z" /></symbol><symbol viewBox="0 0 24 24" id="cat-tablet"><path d="M18.6 1C19.9 1 21 2 21 3.3v17.4c0 1.3-1 2.3-2.4 2.3H5.4C4.1 23 3 22 3 20.7V3.3C3 2 4 1 5.4 1h13.2zm-14 16.8v3c0 .3.4.7.8.7h13.2c.4 0 .8-.4.8-.8v-2.9H4.6zM12 19a1 1 0 1 1 0 2 1 1 0 0 1 0-2zm7.4-2.7v-13c0-.4-.4-.8-.8-.8H5.4c-.4 0-.8.4-.8.8v13h14.8z" /></symbol><symbol viewBox="0 0 24 24" id="cat-temptations"><path d="M20.88 8.57A9.8 9.8 0 0 1 22 13.1C22 18.57 17.51 23 12 23S2 18.57 2 13.11c0-1.55.38-3.1 1.1-4.48-2.61-3.66.34-7.31.37-7.35a.8.8 0 0 1 .87-.23.79.79 0 0 1 .52.73c0 1.5 1.52 2.43 2.18 2.75 3-1.7 6.88-1.71 9.89-.02.64-.32 2.14-1.24 2.14-2.73 0-.33.2-.62.52-.73a.8.8 0 0 1 .88.23c.03.04 2.94 3.65.41 7.29zM12 21.44c4.64 0 8.42-3.74 8.42-8.33S16.64 4.8 12 4.8c-4.64 0-8.42 3.73-8.42 8.32s3.78 8.33 8.42 8.33zm-3.5-8.9a1.22 1.22 0 1 1 0-2.44 1.22 1.22 0 0 1 0 2.44zm7.31-2.44a1.22 1.22 0 1 1 0 2.44 1.22 1.22 0 0 1 0-2.44zm.77 4.96c.4.2.57.7.37 1.1a5.35 5.35 0 0 1-9.58 0 .81.81 0 0 1 1.45-.73 3.73 3.73 0 0 0 6.67 0 .81.81 0 0 1 1.1-.37zM3.85 3.8a4.1 4.1 0 0 0 .18 3.35A10.04 10.04 0 0 1 5.6 5.52 5.51 5.51 0 0 1 3.85 3.8zm16.23 0a5.5 5.5 0 0 1-1.71 1.7 10 10 0 0 1 1.55 1.6c.61-1.23.48-2.4.16-3.3z" /></symbol><symbol viewBox="0 0 24 24" id="cat-toys"><path d="M21.23 11.25h-1.54v-1.5a.76.76 0 0 0-.77-.75h-2.3a.76.76 0 0 0-.77.75v1.5h-3.08V6a.76.76 0 0 0-.77-.75H4.3a.76.76 0 0 0-.76.75v9.75h-.77a.76.76 0 0 0-.77.75c0 .41.34.75.77.75h.77V18c0 .41.34.75.77.75h.87A3.07 3.07 0 0 0 8.15 21c1.43 0 2.64-.96 2.98-2.25h3.28A3.07 3.07 0 0 0 17.38 21c1.44 0 2.64-.96 2.98-2.26l.1.01h.77A.76.76 0 0 0 22 18v-6a.76.76 0 0 0-.77-.75zM8.15 19.5c-.84 0-1.53-.67-1.53-1.5s.69-1.5 1.53-1.5c.85 0 1.54.67 1.54 1.5S9 19.5 8.16 19.5zm9.23 0c-.84 0-1.53-.67-1.53-1.5s.69-1.5 1.54-1.5c.84 0 1.53.67 1.53 1.5s-.69 1.5-1.53 1.5zm3.08-2.25-.1.01A3.06 3.06 0 0 0 17.4 15c-1.44 0-2.64.96-2.98 2.25h-3.28A3.07 3.07 0 0 0 8.15 15c-1.43 0-2.63.96-2.97 2.25h-.1V6.75h6.15V12c0 .41.35.75.77.75h4.62a.76.76 0 0 0 .77-.75v-1.5h.76V12c0 .41.35.75.77.75h1.54v4.5zM9.7 7.5H6.62a.76.76 0 0 0-.77.75v3c0 .41.34.75.77.75h3.07a.76.76 0 0 0 .77-.75v-3a.76.76 0 0 0-.77-.75zm-.77 3H7.38V9h1.54v1.5zM3.54 3h9.23a.76.76 0 0 1 .77.75.76.76 0 0 1-.77.75H3.54a.76.76 0 0 1-.77-.75.76.76 0 0 1 .77-.75z" /></symbol><symbol viewBox="0 0 24 24" id="cat-tv"><path d="M3.585 20.464h16.829V8.336H3.585v12.128zM21.207 6.8c.437 0 .793.344.793.768v13.663a.781.781 0 0 1-.793.768H2.793A.78.78 0 0 1 2 21.232V7.569a.78.78 0 0 1 .793-.768h8.284L7.474 3.31a.75.75 0 0 1 0-1.086.81.81 0 0 1 1.12 0L12 5.522l3.406-3.297a.81.81 0 0 1 1.12 0c.31.3.31.786 0 1.086L12.923 6.8h8.284zm-8.908 11.36a3.866 3.866 0 0 1-3.862-3.862 3.867 3.867 0 0 1 3.862-3.863 3.867 3.867 0 0 1 3.862 3.863 3.866 3.866 0 0 1-3.862 3.862zm0-9.161A5.305 5.305 0 0 0 7 14.299a5.305 5.305 0 0 0 5.299 5.299 5.305 5.305 0 0 0 5.299-5.299A5.305 5.305 0 0 0 12.299 9zm-.624 6.914 2.56-1.548a.44.44 0 0 0-.01-.753l-2.55-1.547a.443.443 0 0 0-.675.376v3.095c0 .348.378.555.675.377z" /></symbol><symbol viewBox="0 0 24 24" id="cat-watch"><path d="M12 17h.15a4.67 4.67 0 0 0 3.15-1.25A5.37 5.37 0 0 0 17 12a5.08 5.08 0 0 0-5-5h-.1A5.06 5.06 0 0 0 7 12a5.08 5.08 0 0 0 5 5zm0-8.52a3.22 3.22 0 0 1 2.27.86A3.82 3.82 0 0 1 15.5 12a3.55 3.55 0 0 1-3.5 3.51 3.52 3.52 0 0 1 0-7z" /><path d="M11.5 13.51h2a.63.63 0 0 0 .62-.63v-.21a.62.62 0 0 0-.62-.62h-1.18v-1.54a.62.62 0 0 0-.18-.44.59.59 0 0 0-.44-.18h-.2a.62.62 0 0 0-.62.62v2.37a.63.63 0 0 0 .62.63z" /><path d="M19.3 4H18l-.88-2.49a.71.71 0 0 0-.66-.51H7.54a.71.71 0 0 0-.67.49L6 4H4.7a.69.69 0 0 0-.7.69v14.64a.69.69 0 0 0 .7.69H6l.88 2.49a.71.71 0 0 0 .67.49h8.92a.71.71 0 0 0 .67-.49L18 20h1.3a.69.69 0 0 0 .7-.69V4.67a.69.69 0 0 0-.7-.67zM8.22 2.63h7.56L16.26 4H7.74zm7.56 18.74H8.22L7.74 20h8.52zm2.56-3H5.66V5.61h12.68z" /></symbol><symbol viewBox="0 0 24 24" id="cat-women-bag"><path d="m3.7 20.34.34-7.26c1.51 1.54 4.08 2.6 7.1 2.77v.1c0 .48.38.86.84.86.47 0 .81-.38.85-.81v-.15c3.01-.17 5.57-1.22 7.1-2.76l.33 7.25H3.71zm8.28-16.68c3.78 0 6.84 2.18 7.1 4.94H4.85c.27-2.76 3.37-4.94 7.14-4.94zm0 9.62a.85.85 0 0 0-.84.85v.05c-3.55-.24-6.44-1.9-6.8-3.92h15.37c-.36 2.04-3.29 3.7-6.88 3.93v-.06a.85.85 0 0 0-.85-.85zm9.47-3.87a.88.88 0 0 0-.66-.79C20.55 4.96 16.7 2 11.99 2 7.24 2 3.4 4.97 3.13 8.64a.83.83 0 0 0-.58.76l-.55 11.75c-.04.21.04.42.21.6.17.16.38.25.6.25h18.33a.9.9 0 0 0 .85-.77v-.17L21.45 9.4z" /></symbol><symbol viewBox="0 0 24 24" id="cat-women-clothing"><path d="M17.18 20.25H6.81v-4.72c0-1.37.64-2.63 1.72-3.52a.89.89 0 0 0 .33-.14c.88-.68 2-1.02 3.16-1.02s2.23.38 3.16 1.02a.56.56 0 0 0 .17.1 4.67 4.67 0 0 1 1.83 3.6v4.68zM9.13 5.56a.97.97 0 0 0 .15.02c.09 0 .17-.02.25-.04.85.03 1.56.6 1.56 1.31v.04c0 .47.42.85.93.85s.93-.38.93-.85c0-.71.68-1.34 1.55-1.35a.99.99 0 0 0 .26.04l.12-.01c.72.12 1.28.65 1.28 1.28 0 .06 0 .13.02.18l-.9 2.89a7.48 7.48 0 0 0-3.21-.73 7.34 7.34 0 0 0-3.21.73L7.88 6.8c0-.03-.02-.05-.03-.08.07-.57.6-1.05 1.28-1.17zM16.85 11l1.17-3.77a.83.83 0 0 0-.06-.5c-.07-1.2-1-2.23-2.27-2.64V2.85c0-.47-.41-.85-.93-.85-.5 0-.93.38-.93.85v1.13a3.58 3.58 0 0 0-1.82.88 3.74 3.74 0 0 0-1.8-.9v-1.1c0-.48-.42-.86-.93-.86s-.93.38-.93.85v1.17c-1.38.39-2.37 1.5-2.37 2.83a.79.79 0 0 0 .17.5l1.1 3.53A6.12 6.12 0 0 0 5 15.58v5.57c0 .47.42.85.93.85h12.18c.51 0 .93-.38.89-.81v-5.57A6.1 6.1 0 0 0 16.86 11z" /></symbol><symbol viewBox="0 0 24 24" id="cat-women-shoes"><path d="M21.24 17.62a3.13 3.13 0 0 1-2.81 1.74H12.8a1.9 1.9 0 0 1-1.59-.85l-3.63-5.47c1.74.47 2.95 1.62 4.13 2.75 1.32 1.28 2.57 2.48 4.45 2.48a5.73 5.73 0 0 0 4.32-2.4l.17.09a1.22 1.22 0 0 1 .59 1.66M4.17 19.36c-.13 0-.32-.12-.35-.28l-1.04-6.26h2.23l-.51 6.23a.34.34 0 0 1-.33.31M3.91 5.03l1.61 1.61a4.14 4.14 0 0 0 5.08.63.54.54 0 0 1 .75.18l.24.4A20.32 20.32 0 0 0 19 15.12a4.05 4.05 0 0 1-2.89 1.53c-1.17 0-2.1-.9-3.27-2.03-1.58-1.51-3.54-3.4-6.86-3.42H2.64c.1-3.61.81-5.38 1.27-6.16m18.93 11.09a2.87 2.87 0 0 0-1.51-1.65 18.7 18.7 0 0 1-8.34-7.45l-.24-.4a2.18 2.18 0 0 0-2.99-.76c-1 .6-2.26.45-3.08-.38L4.44 3.24a.81.81 0 0 0-1.03-.1C3.16 3.3 1 4.94 1 12l.01.06v.07l1.2 7.22a1.98 1.98 0 0 0 2.03 1.64 1.98 1.98 0 0 0 1.89-1.8l.4-4.78 3.32 5A3.53 3.53 0 0 0 12.8 21h5.63a4.75 4.75 0 0 0 4.27-2.65 2.88 2.88 0 0 0 .14-2.23" /></symbol><symbol viewBox="0 0 24 24" id="categories"><path d="M12 9.333h3.556c.488 0 .888-.4.888-.889 0-.488-.4-.888-.888-.888H12c-.489 0-.889.4-.889.888 0 .49.4.89.889.89zm0 3.556h3.556c.488 0 .888-.4.888-.889s-.4-.889-.888-.889H12c-.489 0-.889.4-.889.889s.4.889.889.889zm0 3.555h3.556c.488 0 .888-.4.888-.888 0-.49-.4-.89-.888-.89H12c-.489 0-.889.4-.889.89 0 .488.4.888.889.888zM7.556 7.556h1.777v1.777H7.556V7.556zm0 3.555h1.777v1.778H7.556V11.11zm0 3.556h1.777v1.777H7.556v-1.777zM19.11 4H4.89C4.4 4 4 4.4 4 4.889V19.11c0 .489.4.889.889.889H19.11c.489 0 .889-.4.889-.889V4.89C20 4.4 19.6 4 19.111 4zm-.889 14.222H5.778V5.778h12.444v12.444z" /></symbol><symbol viewBox="0 0 24 24" id="chat"><path d="M20 2a2 2 0 012 2v12a2 2 0 01-2 2H6l-4 4V4c0-1.1.9-2 2-2zm-1 2H5a1 1 0 00-1 1v13l2-2h13c.6 0 1-.5 1-1V5c0-.6-.5-1-1-1zM7.6 8.6a1.4 1.4 0 110 2.8 1.4 1.4 0 010-2.8zm4.4 0a1.4 1.4 0 110 2.8 1.4 1.4 0 010-2.8zm4.4 0a1.4 1.4 0 110 2.8 1.4 1.4 0 010-2.8z" /></symbol><symbol viewBox="0 0 24 24" id="check"><path d="M9 16.17 4.83 12l-1.42 1.41L9 19 21 7l-1.41-1.41z" /></symbol><symbol viewBox="0 0 24 24" id="check-verified"><path d="m8.5 10.7-1 1.1 3.5 3.6 7.9-8-1.1-1.1-6.8 6.9-2.5-2.5zm9.9 1.3c0 3.5-2.9 6.4-6.4 6.4A6.4 6.4 0 0 1 5.6 12a6.4 6.4 0 0 1 8.2-6.2L15 4.6A8 8 0 0 0 4 12a8 8 0 0 0 8 8 8 8 0 0 0 8-8h-1.6z" /></symbol><symbol viewBox="0 0 24 24" id="clock"><path d="M12 2a10 10 0 1 0 0 20 10 10 0 0 0 0-20Zm0 18a8 8 0 1 1 0-16 8 8 0 0 1 0 16Zm.5-13H11v6l5.3 3.1.7-1.2-4.5-2.7V7Z" /><path d="M12 2a10 10 0 1 0 0 20 10 10 0 0 0 0-20Zm0 18a8 8 0 1 1 0-16 8 8 0 0 1 0 16Zm.5-13H11v6l5.3 3.1.7-1.2-4.5-2.7V7Z" /></symbol><symbol viewBox="0 0 24 24" id="close"><path d="M17.8 20 12 14.2 6.2 20 4 17.8 9.8 12 4 6.2 6.2 4 12 9.8 17.8 4 20 6.2 14.2 12l5.8 5.8z" /></symbol><symbol viewBox="0 0 24 24" id="coupon"><path d="M20 19.2H4v-5h.8c.9 0 1.6-.8 1.6-1.7 0-1-.7-1.7-1.6-1.7H4v-5h16v13.4ZM5.6 17.5h12.8v-10H5.6v1.7C7 9.5 8 11 8 12.5c0 1.6-1 2.9-2.4 3.3v1.7Zm11.2-9.2h-1.6V10h1.6V8.3Zm-1.6 3.4h1.6v1.6h-1.6v-1.6Zm1.6 3.3h-1.6v1.7h1.6V15Z" /></symbol><symbol viewBox="0 0 24 24" id="credit"><path d="M12.774 9.291H9.932l1.388-1.387-1.094-1.094-3.256 3.255 3.256 3.256 1.094-1.094-1.388-1.388h2.842c1.066 0 1.935.868 1.935 1.935a1.937 1.937 0 0 1-1.935 1.935H9.678v1.547h3.096a3.486 3.486 0 0 0 3.482-3.482 3.486 3.486 0 0 0-3.482-3.483ZM12 3.487c-4.694 0-8.513 3.819-8.513 8.513S7.306 20.513 12 20.513s8.513-3.819 8.513-8.513S16.694 3.487 12 3.487Zm0 15.478A6.973 6.973 0 0 1 5.035 12 6.973 6.973 0 0 1 12 5.035 6.973 6.973 0 0 1 18.965 12 6.973 6.973 0 0 1 12 18.965Z" /></symbol><symbol viewBox="0 0 24 24" id="credit-card"><path d="M19.2 5.6H4.8c-1 0-1.8.7-1.8 1.7v10.5c0 1 .8 1.8 1.8 1.8h14.4c1 0 1.8-.8 1.8-1.8V7.3c0-1-.8-1.7-1.8-1.7Zm0 12.2H4.8v-5.2h14.4v5.2Zm0-8.7H4.8V7.3h14.4v1.8Z" /></symbol><symbol viewBox="0 0 24 24" id="delete"><path d="M6 19.6c0 1 .9 2 2 2h8a2 2 0 0 0 2-2v-12H6v12Zm2-10h8v10H8v-10Zm7.5-5-1-1h-5l-1 1H5v2h14v-2h-3.5Z" /></symbol><symbol viewBox="0 0 24 24" id="edit"><path d="M3 17.25V21h3.75L17.81 9.94l-3.75-3.75L3 17.25zM20.71 7.04a1 1 0 0 0 0-1.41l-2.34-2.34a1 1 0 0 0-1.41 0l-1.83 1.83 3.75 3.75 1.83-1.83z" /></symbol><symbol viewBox="0 0 24 24" id="email"><path d="M20 4H4a2 2 0 0 0-2 2v12c0 1.1.9 2 2 2h16a2 2 0 0 0 2-2V6a2 2 0 0 0-2-2zm0 4-8 5-8-5V6l8 5 8-5v2z" /></symbol><symbol viewBox="0 0 24 24" id="email-outline"><path d="M22 6a2 2 0 0 0-2-2H4a2 2 0 0 0-2 2v12c0 1.1.9 2 2 2h16a2 2 0 0 0 2-2V6zm-2 0-8 5-8-5h16zm0 12H4V8l8 5 8-5v10z" /></symbol><symbol viewBox="0 0 24 24" id="error"><path d="M11 15h2v2h-2zm0-8h2v6h-2zm1-5a10 10 0 1 0 0 20 10 10 0 0 0 0-20zm0 18a8 8 0 1 1 0-16 8 8 0 0 1 0 16z" /></symbol><symbol viewBox="0 0 24 24" id="express"><path d="M21.72 13.78c-.23-1.35-.48-2.68-.7-4A2.09 2.09 0 0 0 18.91 8H15.3l.37-2.1c.11-.6-.27-.91-1.1-.91H4.8a.56.56 0 0 0-.57.37c0 .2.16.36.44.36h9.73c.54 0 .57.1.56.17l-1.54 8.73H3a.47.47 0 0 0-.46.38l-.45 2.59a.3.3 0 0 0 .29.35h1.9a1.62 1.62 0 0 0 1.65 1.68 2.52 2.52 0 0 0 2.24-1.68h6.61a1.51 1.51 0 0 0 .33 1 1.49 1.49 0 0 0 1.23.56 2.34 2.34 0 0 0 2.06-1.56h.9a1.87 1.87 0 0 0 1.35-.5 2.18 2.18 0 0 0 .74-1.32l.33-1.9a1.62 1.62 0 0 0 0-.44zM7 18.48a1.52 1.52 0 0 1-1 .39 1.07 1.07 0 0 1-1-1.37 1.57 1.57 0 0 1 1.47-1.29 1 1 0 0 1 1 1.31 1.74 1.74 0 0 1-.47.96Zm6-1.29H8.26a1.62 1.62 0 0 0-1.64-1.68 2.51 2.51 0 0 0-2.24 1.68H2.86l.32-1.82h10.1zm7.44-6.49.47 2.71-2.47-.51c-.19-.06-.21-.11-.18-.29l.34-1.91Zm-3.11 7.68a1.33 1.33 0 0 1-.89.37 1 1 0 0 1-.76-.4 1 1 0 0 1-.19-.85 1.48 1.48 0 0 1 1.35-1.11 1 1 0 0 1 1 1v.13a1.49 1.49 0 0 1-.51.86zm3.37-2.28a1.24 1.24 0 0 1-.42.8 1.11 1.11 0 0 1-.81.27h-.94c0-.85-.68-1.53-1.53-1.54a2.32 2.32 0 0 0-2.09 1.54h-1.2l1.49-8.42h3.61A1.52 1.52 0 0 1 20.3 10h-1.9a.47.47 0 0 0-.43.37l-.4 2.27a.81.81 0 0 0 .61 1l2.82.55ZM3.44 7.28H11c.28 0 .48.16.44.35a.54.54 0 0 1-.55.37H3.32c-.32 0-.47-.17-.44-.37a.56.56 0 0 1 .56-.35ZM4 9.7h3.73c.28 0 .47.16.44.36a.56.56 0 0 1-.56.35H3.84c-.27 0-.47-.16-.43-.35A.54.54 0 0 1 4 9.7Zm-1.43 2.56h6.62c.27 0 .47.15.43.35a.54.54 0 0 1-.56.39H2.44c-.27 0-.44-.2-.44-.39a.55.55 0 0 1 .57-.35z" /></symbol><symbol viewBox="0 0 24 24" id="facebook"><path d="M19.3 2H4.7A2.7 2.7 0 0 0 2 4.7v14.6A2.7 2.7 0 0 0 4.7 22h7.2l.01-7.15h-1.85a.44.44 0 0 1-.44-.43l-.01-2.3c0-.25.2-.45.44-.45h1.85V9.45c0-2.59 1.58-4 3.88-4h1.9c.24 0 .43.2.43.44v1.95a.44.44 0 0 1-.44.44h-1.16c-1.25 0-1.5.6-1.5 1.47v1.92h2.76c.26 0 .47.23.44.5l-.28 2.3a.44.44 0 0 1-.43.38h-2.47L15.02 22h4.29A2.7 2.7 0 0 0 22 19.3V4.7A2.7 2.7 0 0 0 19.3 2z" /></symbol><symbol viewBox="0 0 24 24" id="favorite-border"><path d="M16.05 4A5.462 5.462 0 0 0 12 5.822 5.462 5.462 0 0 0 7.95 4C5.178 4 3 6.11 3 8.796c0 3.296 3.06 5.981 7.695 10.062L12 20l1.305-1.151C17.94 14.777 21 12.092 21 8.796 21 6.11 18.822 4 16.05 4zm-3.96 13.559l-.09.087-.09-.087C7.626 13.8 4.8 11.316 4.8 8.796c0-1.744 1.35-3.052 3.15-3.052 1.386 0 2.736.863 3.213 2.058h1.683c.468-1.195 1.818-2.058 3.204-2.058 1.8 0 3.15 1.308 3.15 3.052 0 2.52-2.826 5.005-7.11 8.763z" /></symbol><symbol viewBox="0 0 24 24" id="feedback-balloon"><path d="M20 2H4a2 2 0 0 0-2 2v18l4-4h14a2 2 0 0 0 2-2V4a2 2 0 0 0-2-2zm0 14H5.2l-.6.6-.6.6V4h16v12zm-9-4h2v2h-2v-2zm0-6h2v4h-2V6z" /><path d="M20 2H4a2 2 0 0 0-2 2v18l4-4h14a2 2 0 0 0 2-2V4a2 2 0 0 0-2-2zm0 14H5.2l-.6.6-.6.6V4h16v12zm-9-4h2v2h-2v-2zm0-6h2v4h-2V6z" /><path d="M20 2H4a2 2 0 0 0-2 2v18l4-4h14a2 2 0 0 0 2-2V4a2 2 0 0 0-2-2zm0 14H5.2l-.6.6-.6.6V4h16v12zm-9-4h2v2h-2v-2zm0-6h2v4h-2V6z" /></symbol><symbol viewBox="0 0 24 24" id="file"><path d="M8 16h8v2H8v-2zm0-4h8v2H8v-2zm6-10H6a2 2 0 0 0-2 2v16c0 1.1.9 2 2 2h12a2 2 0 0 0 2-2V8l-6-6zm4 18H6V4h7v5h5v11z" /></symbol><symbol viewBox="0 0 24 24" id="first-page"><path d="M18 15.84 14.16 12 18 8.18 16.82 7l-5 5 5 5L18 15.84zM7.8 7H6v10h1.8V7z" /></symbol><symbol viewBox="0 0 24 24" id="free-returns"><path d="M14.1 6.8h-5V5.2c0-.6-.6-1-1-.5L4.2 7.6c-.4.3-.4.8 0 1.1l3.7 3c.5.3 1.1 0 1.1-.6V9.6h5a3 3 0 1 1 0 6.1H7.4a1.4 1.4 0 1 0 0 2.8h6.7a5.9 5.9 0 0 0 0-11.7Z" /></symbol><symbol viewBox="0 0 24 24" id="grid-view"><path d="M10 13a1 1 0 011 1v5a1 1 0 01-1 1H5a1 1 0 01-1-1v-5a1 1 0 011-1h5zm9 0a1 1 0 011 1v5a1 1 0 01-1 1h-5a1 1 0 01-1-1v-5a1 1 0 011-1h5zm-9-9a1 1 0 011 1v5a1 1 0 01-1 1H5a1 1 0 01-1-1V5a1 1 0 011-1h5zm9 0a1 1 0 011 1v5a1 1 0 01-1 1h-5a1 1 0 01-1-1V5a1 1 0 011-1h5z" /></symbol><symbol viewBox="0 0 24 24" id="help-outline"><path d="M11 18h2v-2h-2v2zm1-16a10 10 0 1 0 0 20 10 10 0 0 0 0-20zm0 18a8 8 0 1 1 0-16 8 8 0 0 1 0 16zm0-14a4 4 0 0 0-4 4h2c0-1.1.9-2 2-2s2 .9 2 2c0 2-3 1.8-3 5h2c0-2.3 3-2.5 3-5a4 4 0 0 0-4-4z" /></symbol><symbol viewBox="0 0 24 24" id="info"><path d="M11 17h2v-6h-2v6zm1-15a10 10 0 1 0 0 20 10 10 0 0 0 0-20zm0 18a8 8 0 1 1 0-16 8 8 0 0 1 0 16zM11 9h2V7h-2v2z" /></symbol><symbol viewBox="0 0 24 24" id="insurance"><path d="M12 1 3 5v6c0 5.5 3.8 10.7 9 12 5.2-1.3 9-6.5 9-12V5l-9-4zm0 11h7c-.5 4.1-3.3 7.8-7 9v-9H5V6.3l7-3.1V12z" /></symbol><symbol viewBox="0 0 24 24" id="last-page"><path d="M6 15.84 9.84 12 6 8.18 7.18 7l5 5-5 5L6 15.84zM16.2 7H18v10h-1.8V7z" /></symbol><symbol viewBox="0 0 24 24" id="list"><path d="M3 13h2v-2H3v2zm0 4h2v-2H3v2zm0-8h2V7H3v2zm4 4h14v-2H7v2zm0 4h14v-2H7v2zM7 7v2h14V7H7zm-4 6h2v-2H3v2zm0 4h2v-2H3v2zm0-8h2V7H3v2zm4 4h14v-2H7v2zm0 4h14v-2H7v2zM7 7v2h14V7H7z" /></symbol><symbol viewBox="0 0 24 24" id="list-view"><path d="M10 13a1 1 0 0 1 1 1v5a1 1 0 0 1-1 1H5a1 1 0 0 1-1-1v-5a1 1 0 0 1 1-1h5zm9 3a1 1 0 0 1 0 2h-5a1 1 0 0 1 0-2h5zm0-3a1 1 0 0 1 0 2h-5a1 1 0 0 1 0-2h5zm-9-9a1 1 0 0 1 1 1v5a1 1 0 0 1-1 1H5a1 1 0 0 1-1-1V5a1 1 0 0 1 1-1h5zm9 3a1 1 0 0 1 0 2h-5a1 1 0 0 1 0-2h5zm0-3a1 1 0 0 1 0 2h-5a1 1 0 0 1 0-2h5z" /></symbol><symbol viewBox="0 0 24 24" id="menu"><path d="M3 18h18v-2H3v2zm0-5h18v-2H3v2zm0-7v2h18V6H3z" /></symbol><symbol viewBox="0 0 24 24" id="orders"><path d="M21 8.34V8.2c0-.02 0-.05-.03-.08 0-.03 0-.06-.02-.09 0-.02-.03-.05-.06-.08l-.02-.06-2.33-3.96A1.8 1.8 0 0 0 16.98 3H7.02a1.8 1.8 0 0 0-1.56.93L3.13 7.89l-.02.06c-.03.03-.03.06-.06.08l-.02.09c0 .03-.03.06-.03.08v10.55C3 19.99 3.95 21 5.12 21h13.76c1.17 0 2.12-1.01 2.12-2.25V8.35zm-3.81-3.51 1.59 2.67h-5.99V4.69h4.19c.08 0 .16.05.2.14zm-10.38 0c.05-.09.13-.14.21-.14h4.19V7.5H5.22l1.6-2.67zm7.04 14.48h-3.7v-1.4h3.7v1.4zm5.56-.56c0 .31-.24.56-.53.56h-3.44v-2.25c0-.48-.34-.84-.8-.84H9.36c-.45 0-.8.36-.8.84v2.25H5.13c-.3 0-.53-.25-.53-.56V9.19H19.4v9.56z" /></symbol><symbol viewBox="0 0 24 24" id="payment"><path d="M6 15.5a6.5 6.5 0 1 0 12.98 0A6.5 6.5 0 0 0 6 15.5zm6.5-5.59a5.6 5.6 0 1 1 0 11.2 5.6 5.6 0 0 1 0-11.2zm.47-2.28V3.44c0-.24-.22-.44-.48-.44s-.47.2-.47.44v4.19c0 .24.2.44.47.44.26 0 .48-.2.48-.44zm3.48 0V5.65c0-.24-.21-.43-.47-.43s-.48.2-.48.43v1.98c0 .24.21.44.47.44s.48-.2.48-.44zm-6.97 0V5.65c0-.24-.2-.43-.47-.43-.26 0-.48.2-.48.43v1.98c0 .24.22.44.48.44s.47-.2.47-.44zm2.89 10.4a.43.43 0 0 0-.15 0c-.51-.07-.9-.51-.9-1.04 0-.25-.2-.45-.44-.45-.25 0-.45.2-.45.45 0 .88.58 1.65 1.4 1.88v.46c0 .25.2.45.45.45.24 0 .44-.2.44-.45v-.43c.96-.2 1.6-1.11 1.5-2.1-.1-1-.91-1.75-1.89-1.75-.55 0-1-.47-1-1.04 0-.57.45-1.03 1-1.03s1.01.46 1.01 1.03c0 .25.2.46.45.46.24 0 .44-.2.44-.46 0-.92-.63-1.71-1.5-1.9v-.42c0-.25-.2-.46-.45-.46s-.45.2-.45.46v.44a1.95 1.95 0 0 0-1.38 2.14c.13.97.93 1.69 1.88 1.69.55 0 1 .45 1.01 1.01.01.57-.42 1.04-.97 1.06z" /></symbol><symbol viewBox="0 0 24 24" id="person"><path d="M4.2 19.89c.44-2.7 2.88-5.55 5.88-5.55h3.84c3 0 5.44 2.84 5.88 5.55H4.2zM12 4.1a4.06 4.06 0 110 8.12 4.06 4.06 0 010-8.12zm7.52 10.68a8.45 8.45 0 00-3.27-2.16A6.18 6.18 0 0012 2a6.17 6.17 0 00-4.25 10.63A8.91 8.91 0 002 20.94V22h20v-1.06c0-2.28-.88-4.46-2.48-6.15z" /></symbol><symbol viewBox="0 0 24 24" id="person-check"><path d="M18 13.01a5 5 0 110 10 5 5 0 010-10zM12.02 1a6.15 6.15 0 014.18 10.65c-1.2.24-2.28.83-3.14 1.64h-2.97c-1.3 0-2.7.6-3.82 1.63a6.99 6.99 0 00-2.2 4.12h7.04c.12.7.34 1.38.66 1.99H2v-1a8.92 8.92 0 015.87-8.35A6.16 6.16 0 0112 1zm8.73 14.8a.6.6 0 00-.42.18l-3.2 3.2-1.42-1.46a.6.6 0 00-.43-.18.6.6 0 00-.43 1l1.84 1.9a.6.6 0 00.85.01l3.63-3.63a.6.6 0 000-.84.59.59 0 00-.42-.18zM12.01 2.98a4.17 4.17 0 10.01 8.34 4.17 4.17 0 000-8.34z" /></symbol><symbol viewBox="0 0 24 24" id="person-prime"><path d="M11 1c.28 0 .55.1.74.3l1.92 1.96 2.78-1.52c.3-.17.68-.17.99 0 .31.15.5.46.5.79V8.3c0 .24-.1.48-.29.65-.15.14-.36.22-.58.24a5.24 5.24 0 01.05 1.82L17 11a6.98 6.98 0 00-2.14.34c.11-.35.2-.71.2-1.1 0-.35-.07-.7-.17-1.03H7.11c-.1.32-.16.67-.16 1.04 0 2.06 1.82 3.73 4.05 3.73l.3-.02c-.43.6-.77 1.26-.99 1.97H9.08c-3 0-5.44 2.63-5.88 5.12h7.5c.36.73.83 1.39 1.4 1.95H1v-.98c0-2.1.88-4.11 2.48-5.67a8.51 8.51 0 013.27-1.99 5.5 5.5 0 01-1.8-5.18c-.5-.06-.88-.43-.88-.9V2.54a.9.9 0 01.5-.8c.3-.16.69-.16 1 .01l2.77 1.52 1.93-1.96c.18-.2.45-.3.73-.3zm6 12A5 5 0 1117 23 5 5 0 0117 13zm2.74 2.8a.6.6 0 00-.42.17l-3.21 3.21-1.42-1.47a.59.59 0 00-.43-.18.6.6 0 00-.43 1l1.84 1.91a.6.6 0 00.85 0l3.64-3.63a.6.6 0 000-.84.59.59 0 00-.42-.18zM11 3.26L9.27 5.04c-.32.33-.84.4-1.25.17L6.05 4.13v3.24l9.9.02V4.13l-1.97 1.08c-.41.23-.93.16-1.24-.17L11 3.27z" /></symbol><symbol viewBox="0 0 24 24" id="phone"><path d="M12.33 5.67h.02a4.94 4.94 0 0 1 4.98 5c0 .3.24.55.54.55.3 0 .55-.24.55-.55a6.03 6.03 0 0 0-6.06-6.1h-.03a.55.55 0 0 0 0 1.1zM19 15.28a2.07 2.07 0 0 0-.64-1.42 5.06 5.06 0 0 0-2.01-1.34c-.84-.24-1.62-.02-2.32.66l-.74.73c-.46-.25-1.35-.82-2.33-1.8l-.07-.07a11.16 11.16 0 0 1-1.8-2.33l.73-.74c.68-.7.9-1.48.66-2.32a5.06 5.06 0 0 0-1.34-2.01 2.07 2.07 0 0 0-2.89-.1h-.01l-.02.03c-.8.8-1.23 1.92-1.22 3.25.01 2.24 1.25 4.82 3.3 6.87l.01.01c.39.39.83.77 1.3 1.14a.55.55 0 1 0 .67-.87c-.44-.34-.85-.7-1.2-1.05-1.86-1.86-2.98-4.14-2.99-6.1 0-1.03.3-1.88.9-2.47.4-.36 1-.34 1.36.05 1.42 1.46 1.32 2.16.7 2.8L8.02 9.22c-.16.16-.2.4-.11.6.02.07.65 1.44 2.2 3l.07.06a11.02 11.02 0 0 0 2.98 2.2c.2.1.45.05.61-.1l1.02-1.02c.64-.63 1.33-.73 2.8.68.39.37.41.98.05 1.37-.59.59-1.43.9-2.44.9h-.02c-.8 0-1.74-.23-2.7-.64a.55.55 0 0 0-.43 1 8.1 8.1 0 0 0 3.12.73h.03a4.4 4.4 0 0 0 3.22-1.22l.02-.02.02-.01c.36-.4.55-.93.53-1.47z" /><path d="M14.2 16.81c-.52-.13-1.54-.38-2.74-1.07l-.08-.05a10.5 10.5 0 0 1-2.3-1.77l-1.2-.21a.5.5 0 0 0 .05.59c.04.05 1 1.24 2.9 2.34l.09.05a8.54 8.54 0 0 0 3.59 1.25c.38 0 .28-.37-.32-1.13zm.9-8.91c-.58-.59-1.15-.74-1.42-.82a.55.55 0 0 0-.29 1.05c.22.07.56.16.94.54.37.37.47.7.53.92v.03a.55.55 0 1 0 1.06-.31l-.01-.03a3 3 0 0 0-.8-1.38z" /></symbol><symbol viewBox="0 0 24 24" id="phone-chat"><path fill-rule="evenodd" d="M16.4 15c1.2.3 2.4.5 3.6.5.6 0 1 .4 1 1V20c0 .6-.4 1-1 1A17 17 0 0 1 3 4c0-.5.5-1 1-1h3.5c.6 0 1 .5 1 1 0 1.3.2 2.5.6 3.6 0 .3 0 .7-.3 1l-2.2 2.2a15 15 0 0 0 6.6 6.6l2.2-2.2a1 1 0 0 1 1-.3ZM6.5 5H5c.1 1.3.4 2.6.8 3.8L7 7.6c-.3-.8-.4-1.7-.5-2.6ZM19 19a16 16 0 0 1-3.8-.8l1.2-1.2c.9.3 1.7.4 2.6.5V19ZM12 3v10l3-3h6V3h-9Zm7 5h-5V5h5v3Z" /></symbol><symbol viewBox="0 0 24 24" id="pickup"><path d="M7.16 7.5v4.66h9.48V2.84H7.16V7.5m3.28-3.38v.56h-2.6V3.56h2.6v.56m2.24.67v1.23l-.4-.41-.38-.42-.39.42-.39.41V3.56h1.56v1.23m3.28-.67v.56h-2.6V3.56h2.6v.56m-5.52 2.45v1.17l.73-.76.73-.75.73.75.73.76V5.4h2.6v6.04H7.84V5.4h2.6v1.17M3.42 8.69a.9.9 0 0 0-.47.4l-.09.17-.01 2.6-.01 2.6 1.63 2.16 1.64 2.16-.4.01-.39.01v2.36l2.59-.01 2.59-.01.01-1.17.01-1.17h-.87l.03-.13c.15-.57.2-1.79.1-2.35-.12-.7-.52-1.35-1.57-2.58a7.25 7.25 0 0 0-1.47-1.48.97.97 0 0 0-.8.06.85.85 0 0 0-.34.9c.02.1.15.34.28.54.13.2.23.36.2.36l-.51-.47-.5-.47-.25-1.88a53.47 53.47 0 0 0-.3-2.04.87.87 0 0 0-1.1-.57m16.4 0a.92.92 0 0 0-.47.44c-.05.12-.14.63-.34 2.1l-.26 1.95-.33.3c-.6.56-.75.7-.72.64l.23-.35c.25-.37.31-.52.31-.75a.8.8 0 0 0-.46-.75.95.95 0 0 0-.85.06 18.6 18.6 0 0 0-2.32 2.7 3.07 3.07 0 0 0-.63 2.17c0 .6.06 1.07.17 1.51.02.09.02.09-.43.09h-.44v2.36h5.2V18.8h-.38l-.39-.02 1.63-2.17 1.62-2.16v-2.6l-.02-2.59-.1-.18a.85.85 0 0 0-1.02-.38m-15.98.75c.02.05.16.97.3 2.05l.28 2c0 .03.61.6 1.34 1.29a13.8 13.8 0 0 0 1.46 1.28c.35.12.66-.17.62-.57 0-.04-.35-.59-.77-1.22-.44-.65-.77-1.18-.77-1.23a.2.2 0 0 1 .07-.15c.07-.03.13.01.46.36 1.22 1.28 2.13 2.52 2.24 3.08.12.56.1 1.28-.05 2.11l-.07.35H7l-1.72-2.3-1.72-2.3v-2.4c0-1.31.01-2.4.03-2.41.06-.07.21-.03.25.06m16.39 2.34.01 2.4-1.71 2.3-1.71 2.3h-.99c-.83.01-.98 0-1-.05a6.47 6.47 0 0 1-.04-2.55c.2-.58.87-1.5 2.02-2.74.54-.58.62-.64.72-.48.04.05-.1.29-.76 1.28-.86 1.29-.88 1.33-.75 1.59.11.22.44.32.66.2.05-.03.6-.53 1.24-1.12l1.31-1.22.17-.16.28-2.02.3-2.1c.02-.04.06-.06.13-.05l.11.01.01 2.4M9.8 19.99v.46H6v-.92h3.8v.46m8 0v.46H14v-.92h3.8v.46" /></symbol><symbol viewBox="0 0 24 24" id="postal"><path d="m12.19 3.04 8.6 4.55.02.01.01.01.01.01.03.02.01.01-.05-.04a.4.4 0 0 1 .07.06l.03.04.02.03.02.03.02.04v.03l.01.05v.02l.01.04v8.9a.4.4 0 0 1-.2.35l-8.6 4.75a.35.35 0 0 1-.36 0l-8.6-4.75a.4.4 0 0 1-.2-.35V7.93a.3.3 0 0 1 0-.05v.07a.4.4 0 0 1 .02-.15l.01-.02c0-.02.02-.04.03-.05V7.7a.32.32 0 0 1 .04-.04l.02-.02a.2.2 0 0 1 .04-.03l.01-.01h.01l.02-.02 8.62-4.55c.1-.05.23-.05.33 0zM3.79 8.6v8.02l7.85 4.34v-8.2L3.78 8.58zm16.46 0-3.37 1.78v4.11c0 .22-.16.4-.37.4a.38.38 0 0 1-.38-.4v-3.71l-3.73 1.97v8.21l7.85-4.34V8.6zM7.9 6 4.24 7.95l7.78 4.11 3.65-1.94-7.77-4.1zm4.12-2.17L8.74 5.57l7.77 4.11 3.28-1.73-7.77-4.11z" /></symbol><symbol viewBox="0 0 24 24" id="remove"><path d="M19 13H5v-2h14v2z" /></symbol><symbol viewBox="0 0 24 24" id="reorder"><path d="M11.5 11.5h1V10H14V9h-1.5V7.5h-1V9H10v1h1.5v1.5zm-2 4.5a1 1 0 1 0 0 2 1 1 0 0 0 0-2zm5 0a1 1 0 1 0 0 2 1 1 0 0 0 0-2zm-4.92-1.63.02-.05.45-.82h3.73a1 1 0 0 0 .87-.52l1.93-3.5-.87-.48-.55 1-1.38 2.5h-3.51l-.07-.14L9.08 10l-.47-1-.47-1H6.5v1h1l1.8 3.8-.68 1.22a.97.97 0 0 0-.12.48 1 1 0 0 0 1 1h6v-1H9.71a.13.13 0 0 1-.13-.13z" /><path d="M12.48 3.3h-1.74l.57-.55a.4.4 0 0 0 0-.6.44.44 0 0 0-.62 0L9.36 3.41a.41.41 0 0 0 0 .6l1.33 1.28a.44.44 0 0 0 .62 0 .4.4 0 0 0 0-.6l-.57-.55H12a8.33 8.33 0 0 1 8.16 8.49A8.34 8.34 0 0 1 12 21.14a8.34 8.34 0 0 1-8.16-8.5.42.42 0 1 0-.84 0A9.19 9.19 0 0 0 12 22a9.19 9.19 0 0 0 9-9.36 9.2 9.2 0 0 0-8.52-9.34z" /></symbol><symbol viewBox="0 0 24 24" id="restore"><path d="M13 3c-5 0-9 4-9 9H1l3.9 3.9v.1L9 12H6a7 7 0 1 1 2 5l-1.4 1.4A9 9 0 1 0 13 3zm-1 5v5l4.3 2.5.7-1.2-3.5-2V8H12z" /></symbol><symbol viewBox="0 0 24 24" id="return-order"><path fill="#FFF" d="M8.68 11.83v4.35h6.58v-4.35zm-.83-2.01V11h8.3V9.82z" /><path d="M8.68 11.83v4.35h6.58v-4.35H8.68zM8.41 11h7.13a.55.55 0 0 1 .56.54v4.9a.55.55 0 0 1-.56.55H8.41a.55.55 0 0 1-.56-.55v-4.9a.55.55 0 0 1 .56-.54z" /><path d="M7.85 9.82V11h8.3V9.82h-8.3zM7.56 9h8.88a.55.55 0 0 1 .56.55v1.69a.56.56 0 0 1-.56.55H7.56a.56.56 0 0 1-.56-.55V9.55A.55.55 0 0 1 7.56 9z" /><path d="M12.48 3.3h-1.74l.57-.55a.4.4 0 0 0 0-.6.44.44 0 0 0-.62 0L9.36 3.41a.41.41 0 0 0 0 .6l1.33 1.28a.44.44 0 0 0 .62 0 .4.4 0 0 0 0-.6l-.57-.55H12a8.33 8.33 0 0 1 8.16 8.49A8.34 8.34 0 0 1 12 21.14a8.34 8.34 0 0 1-8.16-8.5.42.42 0 1 0-.84 0A9.19 9.19 0 0 0 12 22a9.19 9.19 0 0 0 9-9.36 9.2 9.2 0 0 0-8.52-9.34z" /></symbol><symbol viewBox="0 0 24 24" id="reviews"><path d="m10.65 13.8 1.8-1.8h4.95v1.8h-6.75zm8.47 2.26V4.88H4.88V17l.51-.4.52-.54h13.22zM19.2 3c.99 0 1.8.8 1.8 1.8v10.8c0 1.4-1 2.4-1.8 2.4H6.6L3 21V4.8C3 3.81 3.82 3 4.8 3h14.4zM8.31 13.68H6.97l-.02-1.54 3.9-3.91.69-.68.44-.44a.71.71 0 0 1 1 0l.41.41a.7.7 0 0 1 0 1l-.4.4-.03.05-4.65 4.7z" /></symbol><symbol viewBox="0 0 24 24" id="saved-items"><path d="M16.5 3c-1.74 0-3.41.8-4.5 2.05A6.04 6.04 0 0 0 7.5 3 5.4 5.4 0 0 0 2 8.4c0 3.7 3.4 6.72 8.55 11.31L12 21l1.45-1.3C18.6 15.13 22 12.1 22 8.4A5.4 5.4 0 0 0 16.5 3zm-4.4 15.25-.1.1-.1-.1C7.14 14.03 4 11.23 4 8.4c0-1.97 1.5-3.44 3.5-3.44a3.9 3.9 0 0 1 3.57 2.32h1.87a3.89 3.89 0 0 1 3.56-2.32c2 0 3.5 1.47 3.5 3.44 0 2.83-3.14 5.63-7.9 9.85z" /></symbol><symbol viewBox="0 0 24 24" id="saved-items-filled"><path d="m12 21-1.45-1.3C5.4 15.13 2 12.1 2 8.4A5.4 5.4 0 0 1 7.5 3c1.74 0 3.41.8 4.5 2.05A6.04 6.04 0 0 1 16.5 3 5.4 5.4 0 0 1 22 8.4c0 3.7-3.4 6.72-8.55 11.31L12 21z" /></symbol><symbol viewBox="0 0 24 24" id="search"><path d="M20.773 18.51l-4.322-4.464c-.31-.32-.697-.449-.865-.285-.168.163-.556.035-.866-.286l-.061-.064A6.488 6.488 0 0 0 4.9 4.901a6.491 6.491 0 0 0 8.641 9.661l.027.029c.31.32.425.711.256.874-.168.163-.054.555.256.875l4.32 4.466c.31.32.82.33 1.141.02l1.213-1.174c.32-.31.328-.82.018-1.141zm-8.117-5.855a4.48 4.48 0 0 1-6.328 0 4.48 4.48 0 0 1 0-6.328 4.479 4.479 0 0 1 6.327 0 4.48 4.48 0 0 1 0 6.328z" /></symbol><symbol viewBox="0 0 24 24" id="secure-payments"><path d="m1.3 5.06.03-.18h.19c2.57 0 5.52-.45 7.32-1.1l.07-.04.08.03c.02 0 .04 0 .06.02h-.06l-.08-.04-.07.03c-1.8.66-4.75 1.1-7.32 1.1h-.19l-.03.2a24.4 24.4 0 0 0-.28 4.02c.19 6.93 3.8 11.15 7.83 12.38l.06.02.07-.02.07-.02v-.02c2.73-.86 5.26-3.1 6.65-6.63a5.35 5.35 0 0 1-.37-.28c-1.3 3.41-3.69 5.59-6.28 6.45 2.6-.87 4.98-3.04 6.28-6.45a4.83 4.83 0 0 1-.45-.43 4.58 4.58 0 0 1-.18-.2 10.79 10.79 0 0 1-2.8 4.54 8.36 8.36 0 0 1-2.85 1.72l-.06.02-.08.03-.07-.03a8.4 8.4 0 0 1-2.91-1.74c-2.77-2.56-4.1-7.2-3.56-12.4l.02-.19h.2c2.3-.1 4.58-.46 6.25-1.01l.07-.02.07.02.07.02c1.67.53 3.92.9 6.2.98h.18l.02.2v.06l.21-.15.52-.32v-.01l.42-.2-.03-.21-.05-.4-.03-.18h-.2c-2.57 0-5.51-.44-7.31-1.1L8.9 3.5l-.07.03a23.8 23.8 0 0 1-7.32 1.1h-.2l-.02.19C1.07 6.22.97 7.65 1 9.08a22.6 22.6 0 0 1 .3-4.02Zm7.75-.44Zm0-.59a24.62 24.62 0 0 1 0-.01v.01Zm6.39 1.6h.19l.02.2v.03-.05l-.02-.18h-.2Zm-9.2 12.48C3.6 15.68 2.31 11.27 2.78 6.28c2.08-.08 4.13-.41 6.12-1l.14.04c1.95.56 3.96.88 5.99.96l.01.18a5.38 5.38 0 0 0-.68 7.03 10.58 10.58 0 0 1-2.78 4.61 7.95 7.95 0 0 1-2.54 1.58l-.14.05c-.99-.35-1.9-.9-2.68-1.62ZM22.14 7.8l.23.35a4.28 4.28 0 0 1-1.43 5.87l-.18.1a4.24 4.24 0 0 1-6.1-2.49 4.3 4.3 0 0 1 1.06-4.28l.15-.14a3.84 3.84 0 0 1 .65-.5l.18-.1a4.26 4.26 0 0 1 4.06 0l.18.1a4.43 4.43 0 0 1 .65.5l.15.14c.15.14.28.3.4.46Zm-1.84 3.05 1.57-1.54L19.71 9l-.97-1.97L17.77 9l-2.17.32 1.57 1.54-.37 2.17L18.74 12l1.94 1.03-.37-2.17Z" /></symbol><symbol viewBox="0 0 24 24" id="shop-bag"><path d="M12.1 2.9c1.5 0 2.7 1.2 2.7 2.7v1.8H9.4V5.6c0-1.5 1.2-2.7 2.7-2.7zM5.8 9.3h1.8v2.5c0 .5.4.9 1 .9a1 1 0 0 0 .8-1V9.4h5.4v2.5c0 .5.4.9 1 .9a1 1 0 0 0 .8-1V9.4h1.6v11.3a.5.5 0 0 1-.6.5H6.4a.5.5 0 0 1-.6-.5V9.2zm13.3-2h-2.5V5.7c0-2.5-2-4.6-4.5-4.6S7.6 3 7.6 5.6v1.8H4.9a1 1 0 0 0-.9 1v12.2C4 21.9 5 23 6.4 23h11.2c1.4 0 2.4-1 2.4-2.4V8.3a1 1 0 0 0-1-1z" /><path d="M12.1 2.9c1.5 0 2.7 1.2 2.7 2.7v1.8H9.4V5.6c0-1.5 1.2-2.7 2.7-2.7zM5.8 9.3h1.8v2.5c0 .5.4.9 1 .9a1 1 0 0 0 .8-1V9.4h5.4v2.5c0 .5.4.9 1 .9a1 1 0 0 0 .8-1V9.4h1.6v11.3a.5.5 0 0 1-.6.5H6.4a.5.5 0 0 1-.6-.5V9.2zm13.3-2h-2.5V5.7c0-2.5-2-4.6-4.5-4.6S7.6 3 7.6 5.6v1.8H4.9a1 1 0 0 0-.9 1v12.2C4 21.9 5 23 6.4 23h11.2c1.4 0 2.4-1 2.4-2.4V8.3a1 1 0 0 0-1-1z" /><path d="M12.1 2.9c1.5 0 2.7 1.2 2.7 2.7v1.8H9.4V5.6c0-1.5 1.2-2.7 2.7-2.7zM5.8 9.3h1.8v2.5c0 .5.4.9 1 .9a1 1 0 0 0 .8-1V9.4h5.4v2.5c0 .5.4.9 1 .9a1 1 0 0 0 .8-1V9.4h1.6v11.3a.5.5 0 0 1-.6.5H6.4a.5.5 0 0 1-.6-.5V9.2zm13.3-2h-2.5V5.7c0-2.5-2-4.6-4.5-4.6S7.6 3 7.6 5.6v1.8H4.9a1 1 0 0 0-.9 1v12.2C4 21.9 5 23 6.4 23h11.2c1.4 0 2.4-1 2.4-2.4V8.3a1 1 0 0 0-1-1z" /></symbol><symbol viewBox="0 0 24 24" id="shopping-cart"><path d="M15.55 13a2 2 0 0 0 1.75-1.03l3.58-6.49A1 1 0 0 0 20.01 4H5.21l-.94-2H1v2h2l3.6 7.59-1.35 2.44A2 2 0 0 0 7 17h12v-2H7l1.1-2h7.45zM6.16 6h12.15l-2.76 5H8.53L6.16 6zM7 18a2 2 0 1 0 .01 4A2 2 0 0 0 7 18zm10 0a2 2 0 1 0 .01 4 2 2 0 0 0-.01-4z" /></symbol><symbol viewBox="0 0 24 24" id="soc-facebook"><path d="M15.7 12h-2.4v9H9.7v-9H8V8.8h1.7v-2c0-1.5.7-3.8 3.6-3.8H16v3.1h-2c-.3 0-.7.2-.7.9v1.8H16l-.3 3.2z" /></symbol><symbol viewBox="0 0 24 24" id="soc-instagram"><path d="M17.52 3H6.48A3.48 3.48 0 0 0 3 6.48v11.04A3.48 3.48 0 0 0 6.48 21h11.04A3.48 3.48 0 0 0 21 17.52V6.48A3.48 3.48 0 0 0 17.52 3zm1 2.08h.4v3.04l-3.04.01-.01-3.05h2.65zm-9.09 5.07A3.16 3.16 0 0 1 12 8.83 3.16 3.16 0 0 1 15.17 12 3.17 3.17 0 0 1 12 15.17 3.17 3.17 0 0 1 8.83 12c0-.69.23-1.33.6-1.85zm9.82 7.37c0 .95-.78 1.73-1.73 1.73H6.48a1.73 1.73 0 0 1-1.73-1.73v-7.37h2.7A4.89 4.89 0 0 0 7.07 12 4.93 4.93 0 0 0 12 16.92 4.93 4.93 0 0 0 16.92 12c0-.65-.13-1.28-.36-1.85h2.69v7.37z" /></symbol><symbol viewBox="0 0 24 24" id="soc-jumia"><path d="m19.38 9.54-1.85 1.8-1.84 1.8.87 5.08-4.56-2.4-4.56 2.4.87-5.08-1.84-1.8-1.85-1.8 5.1-.74L12 4.18l2.28 4.62 5.1.74zm.34-3.9A9.98 9.98 0 0 0 12 2a9.98 9.98 0 0 0-7.72 3.64A9.95 9.95 0 0 0 2 12a9.95 9.95 0 0 0 3.64 7.71A9.96 9.96 0 0 0 12 22c2.42 0 4.63-.86 6.36-2.29a10.08 10.08 0 0 0 1.93-2.12 9.95 9.95 0 0 0 1.71-5.6 10 10 0 0 0-2.28-6.35z" /></symbol><symbol viewBox="0 0 24 24" id="soc-linkedin"><path fill-rule="evenodd" d="M19 19h-3v-4.6c0-1.1 0-2.5-1.5-2.5s-1.7 1.2-1.7 2.4V19h-3V9.5h2.8v1.3c.5-.7 1.4-1.5 2.9-1.5 3 0 3.5 2 3.5 4.5V19zM6.4 8.2a1.7 1.7 0 1 1 0-3.4 1.7 1.7 0 0 1 0 3.4zM5 19h3V9.5H5V19zM20.5 2h-17C2.7 2 2 2.6 2 3.4v17.2c0 .8.7 1.4 1.5 1.4h17c.8 0 1.5-.6 1.5-1.4V3.4c0-.8-.7-1.4-1.5-1.4z" /></symbol><symbol viewBox="0 0 24 24" id="soc-pinterest"><path d="M12 2a10 10 0 0 0-4.01 19.16c-.03-.7 0-1.54.17-2.3.2-.8 1.29-5.45 1.29-5.45s-.32-.63-.32-1.58c0-1.48.86-2.59 1.93-2.59.9 0 1.34.69 1.34 1.5 0 .92-.58 2.29-.88 3.55-.25 1.06.53 1.93 1.58 1.93 1.9 0 3.17-2.43 3.17-5.32 0-2.19-1.48-3.83-4.16-3.83a4.74 4.74 0 0 0-4.92 4.79c0 .87.25 1.49.66 1.96.18.22.2.3.14.56l-.2.8c-.07.25-.28.34-.5.25-1.4-.57-2.05-2.1-2.05-3.82 0-2.84 2.4-6.25 7.14-6.25 3.82 0 6.34 2.77 6.34 5.73 0 3.92-2.19 6.86-5.4 6.86-1.08 0-2.1-.59-2.44-1.25l-.7 2.75a8.37 8.37 0 0 1-1.01 2.14A9.99 9.99 0 1 0 12 2" /></symbol><symbol viewBox="0 0 24 24" id="soc-tiktok"><path d="M15.49 2c.33 2.84 1.91 4.53 4.67 4.71v3.2c-1.6.15-3-.37-4.63-1.36v5.97c0 7.59-8.26 9.96-11.59 4.52-2.13-3.5-.83-9.64 6.03-9.88v3.37c-.53.08-1.08.21-1.6.39-1.52.51-2.38 1.48-2.14 3.18.46 3.27 6.45 4.23 5.95-2.15V2.01h3.3V2Z" /></symbol><symbol viewBox="0 0 24 24" id="soc-twitter"><path d="M19.6 6.7a4.3 4.3 0 0 0 1.8-2.4 8 8 0 0 1-2.6 1 4 4 0 0 0-3-1.3c-2.2 0-4 2-4 4.3v1c-3.4-.2-6.4-2-8.4-4.5a4.4 4.4 0 0 0-.6 2.1c0 1.5.8 2.8 1.9 3.6a4 4 0 0 1-1.9-.5c0 2.1 1.4 3.8 3.3 4.2a3.9 3.9 0 0 1-1 .2 3.9 3.9 0 0 1-.9 0c.6 1.6 2 2.9 3.9 2.9A8 8 0 0 1 2 19.1 11.3 11.3 0 0 0 8.3 21C15.8 21 20 14.5 20 8.8v-.6A8.5 8.5 0 0 0 22 6a8 8 0 0 1-2.4.7z" /></symbol><symbol viewBox="0 0 24 24" id="soc-youtube"><path d="M17.85 5H6.15A4.13 4.13 0 0 0 2 9.1v5.8C2 17.15 3.86 19 6.15 19h11.7c2.29 0 4.15-1.84 4.15-4.1V9.1C22 6.85 20.14 5 17.85 5zm-2.81 7.28l-5.47 2.58a.22.22 0 0 1-.32-.2V9.35a.22.22 0 0 1 .32-.19l5.47 2.74a.22.22 0 0 1 0 .4z" /></symbol><symbol viewBox="0 0 24 24" id="star"><path d="m12 17.27 4.15 2.51a1 1 0 0 0 1.49-1.08l-1.1-4.72 3.67-3.18a1 1 0 0 0-.57-1.75l-4.83-.41-1.89-4.46a1 1 0 0 0-1.84 0L9.19 8.63l-4.83.41a1 1 0 0 0-.57 1.75l3.67 3.18-1.1 4.72a1 1 0 0 0 1.49 1.08l4.15-2.5z" /></symbol><symbol viewBox="0 0 24 24" id="star-shield"><path d="M11.62 18.92v-5.08l-1.42.83a.33.33 0 0 1-.15 0 .31.31 0 0 1-.2-.07.4.4 0 0 1-.13-.38l.34-2.1-1.46-1.5a.38.38 0 0 1-.1-.4.33.33 0 0 1 .27-.26l2.01-.3.84-1.84V5L5.88 6.67v6.58c0 1.62 1.75 3.13 3.1 4.08a21 21 0 0 0 2.63 1.6zm.77 0c.92-.44 1.81-.96 2.66-1.54 1.4-.98 3.07-2.5 3.07-4.1V6.66L12.38 5v3.01l.75 1.64 2.01.31c.17-.02.32.1.36.26.04.14.01.28-.09.38l-1.45 1.5.34 2.1a.41.41 0 0 1-.12.38.33.33 0 0 1-.36 0l-1.44-.76v5.1zM12 4.08l.12.01 6.5 1.88c.18.05.3.21.3.4v6.92c-.05 1-.44 1.93-1.1 2.67a11.4 11.4 0 0 1-2.32 2.07 20.59 20.59 0 0 1-3.32 1.87.4.4 0 0 1-.35 0 20.58 20.58 0 0 1-3.33-1.87c-.87-.59-1.65-1.3-2.33-2.1a4.31 4.31 0 0 1-1.1-2.67v-6.9a.4.4 0 0 1 .3-.39l6.5-1.89H12zm-2.41 6.54 1.05 1.1c.09.09.13.22.1.34l-.25 1.57 1.36-.73c.1-.05.2-.05.3 0l1.36.75-.26-1.56a.41.41 0 0 1 .1-.35l1.06-1.09-1.47-.23a.3.3 0 0 1-.26-.2L12 8.73l-.68 1.5a.3.3 0 0 1-.26.19l-1.47.2z" /></symbol><symbol viewBox="0 0 24 24" id="store"><path d="M20 4H4v2h16V4Zm1 10v-2l-1-5H4l-1 5v2h1v6h10v-6h4v6h2v-6h1Zm-9 4H6v-4h6v4Z" /></symbol><symbol viewBox="0 0 24 24" id="track-order"><path d="M12 9a3 3 0 1 0 0 6 3 3 0 1 0 0-6zm8.13 2.09a8.18 8.18 0 0 0-7.22-7.22V2h-1.82v1.87a8.18 8.18 0 0 0-7.22 7.22H2v1.82h1.87a8.18 8.18 0 0 0 7.22 7.22V22h1.82v-1.87a8.18 8.18 0 0 0 7.22-7.22H22v-1.82h-1.87zM12 18.36A6.36 6.36 0 0 1 5.64 12 6.36 6.36 0 0 1 12 5.64 6.36 6.36 0 0 1 18.36 12 6.36 6.36 0 0 1 12 18.36z" /></symbol><symbol viewBox="0 0 24 24" id="truck"><path fill="#FFF" d="m20 10.4 1 2.7-.74-.1-1.26-.3h-.11l-.58-.11c-.21-.05-.24-.1-.24-.28V10.4H20zm-5.27-1.94h3.17a2 2 0 0 1 1.82 1.2h-2a.38.38 0 0 0-.38.37v2.26a1 1 0 0 0 .83 1l.6.11h.11l1.26.25 1.14.23v1.9a1 1 0 0 1-1.1 1.07h-.98a2 2 0 0 0-1.93-1.54 1.93 1.93 0 0 0-1.91 1.54h-1.25V8.46h.62zM3.25 5.64a.19.19 0 0 1 .19-.18h9.35c.57 0 .57.11.57.18v8.67H3.25V5.64zm-.5 9.85v-.44h10.6v1.82H8.42a2.08 2.08 0 0 0-4.08 0H2.75v-1.38zm3.63 3a1.3 1.3 0 1 1 1.33-1.3 1.32 1.32 0 0 1-1.33 1.35v-.05zm10.91-.12a1.22 1.22 0 0 1-.87-.35 1.15 1.15 0 0 1-.35-.85 1.21 1.21 0 0 1 2.41 0 1.18 1.18 0 0 1-1.19 1.25v-.05z" /><path fill="#282828" d="M19.2 17.61h.95A1.74 1.74 0 0 0 22 15.8v-1.89a1.5 1.5 0 0 0-.08-.44c-.49-1.34-1-2.67-1.48-4a2.72 2.72 0 0 0-2.54-1.74h-3.79V5.64c0-.6-.45-.91-1.32-.91H3.44a.93.93 0 0 0-.94.91v8.68h-.12a.37.37 0 0 0-.37.37v2.57a.38.38 0 0 0 .37.35h2a2.08 2.08 0 0 0 4.08 0h6.94c.07.38.25.73.53 1a2 2 0 0 0 1.4.56 1.94 1.94 0 0 0 1.87-1.56zm.8-7.21 1 2.7-.74-.1-1.26-.3h-.11l-.58-.11c-.21-.05-.24-.1-.24-.28V10.4H20zm-5.27-1.94h3.17a2 2 0 0 1 1.82 1.2h-2a.38.38 0 0 0-.38.37v2.26a1 1 0 0 0 .83 1l.6.11h.11l1.26.25 1.14.23v1.9a1 1 0 0 1-1.1 1.07h-.98a2 2 0 0 0-1.93-1.54 1.93 1.93 0 0 0-1.91 1.54h-1.25V8.46h.62zM3.25 5.64a.19.19 0 0 1 .19-.18h9.35c.57 0 .57.11.57.18v8.67H3.25V5.64zm-.5 9.85v-.44h10.6v1.82H8.42a2.08 2.08 0 0 0-4.08 0H2.75v-1.38zm3.63 3a1.3 1.3 0 1 1 1.33-1.3 1.32 1.32 0 0 1-1.33 1.35v-.05zm10.91-.12a1.22 1.22 0 0 1-.87-.35 1.15 1.15 0 0 1-.35-.85 1.21 1.21 0 0 1 2.41 0 1.18 1.18 0 0 1-1.19 1.25v-.05z" /></symbol><symbol viewBox="0 0 24 24" id="visibility"><path d="M12 4.5C7 4.5 2.73 7.61 1 12a11.83 11.83 0 0 0 22 0c-1.73-4.39-6-7.5-11-7.5zM12 17a5 5 0 1 1 0-10 5 5 0 0 1 0 10zm0-8a3 3 0 1 0 0 6 3 3 0 0 0 0-6z" /></symbol><symbol viewBox="0 0 24 24" id="visibility-off"><path d="M12 7a5 5 0 0 1 4.64 6.83l2.92 2.92A11.82 11.82 0 0 0 22.99 12 11.83 11.83 0 0 0 8.01 5.2l2.16 2.16A4.85 4.85 0 0 1 12 7zM2 4.27l2.28 2.28.46.46A11.8 11.8 0 0 0 1 12a11.83 11.83 0 0 0 15.38 6.66l.42.42L19.73 22 21 20.73 3.27 3 2 4.27zM7.53 9.8l1.55 1.55a3 3 0 0 0 3.57 3.57l1.55 1.55A4.96 4.96 0 0 1 7.53 9.8zm4.31-.78 3.15 3.15.02-.16a3 3 0 0 0-3-3l-.17.01z" /></symbol><symbol viewBox="0 0 24 24" id="vouchers"><path d="M21 10.25c-.99 0-1.8.79-1.8 1.75s.81 1.75 1.8 1.75v3.5c0 .96-.81 1.75-1.8 1.75H4.8c-.99 0-1.8-.79-1.8-1.75v-3.5c1 0 1.8-.79 1.8-1.75S4 10.25 3 10.25v-3.5C3 5.79 3.82 5 4.8 5h14.4c.99 0 1.8.79 1.8 1.75v3.5zm-1.78-1.28V6.73H4.7l.01 2.24A3.57 3.57 0 0 1 6.6 12c0 1.29-.8 2.4-1.87 3v2.23h14.52V15a3.5 3.5 0 0 1-1.85-3c0-1.29.75-2.42 1.82-3.03zm-4.33 2.13c.22.04.29.29.16.45l-1.3 1.26c-.03.03-.03.09-.03.14l.3 1.76a.25.25 0 0 1-.35.27l-1.62-.86a.2.2 0 0 0-.14 0l-1.58.84c-.18.09-.4-.07-.36-.27l.3-1.8a.14.14 0 0 0-.03-.13L8.96 11.5c-.15-.14-.06-.39.14-.43l1.8-.26c.03-.02.08-.04.1-.1l.78-1.6c.1-.17.36-.17.45 0l.8 1.64c.01.06.05.1.1.1l1.76.24z" /></symbol><symbol viewBox="0 0 24 24" id="warning"><path d="M4.47 21h15.06a2 2 0 0 0 1.73-3L13.73 4.99a2 2 0 0 0-3.46 0L2.74 18a2 2 0 0 0 1.73 3zM12 14a1 1 0 0 1-1-1v-2c0-.55.45-1 1-1s1 .45 1 1v2a1 1 0 0 1-1 1zm1 4h-2v-2h2v2z" /></symbol></defs></svg>